<?xml version="1.0" encoding="utf-8"?>
<!-- Generator: Adobe Illustrator 22.1.0, SVG Export Plug-In . SVG Version: 6.00 Build 0)  -->
<svg version="1.1" id="Camada_1" xmlns="http://www.w3.org/2000/svg" xmlns:xlink="http://www.w3.org/1999/xlink" x="0px" y="0px"
	 viewBox="0 0 100 50" style="enable-background:new 0 0 100 50;" xml:space="preserve">
<style type="text/css">
	.st0{fill:#FF3666;}
	.st1{fill:#1F1713;}
	.st2{fill:#F1E731;}
	.st3{fill:#DFD83F;}
	.st4{fill:#E1C138;}
	.st5{fill:#E7D539;}
	.st6{fill:#E7D73C;}
	.st7{fill:#E0BB42;}
	.st8{fill:#E2BF3E;}
	.st9{fill:#DEC237;}
	.st10{fill:#FFFFFF;}
	.st11{fill:#E0BD40;}
	.st12{fill:#D2C736;}
	.st13{fill:#E1BC3E;}
	.st14{fill:#DCC140;}
	.st15{fill:#E0BC3E;}
	.st16{fill:#DCC844;}
	.st17{fill:#E7DC41;}
	.st18{fill:#9F3477;stroke:#FFFFFF;stroke-width:2;stroke-miterlimit:10;}
</style>
<g>
	<g>
		<g>
			<g>
				<path class="st0" d="M57.3,36.1c0,1.7-0.8,3.1-2.4,4.3c-1.5,1.1-3.1,1.7-4.8,1.7c-2.6,0.1-5.1-0.5-7.4-1.7
					c-0.9-0.5-2.1-1.3-3.6-2.3c-0.4,0.3-1.3,0.8-2.7,1.5c-4.4,2.4-8.5,3.6-12.2,3.6c-4.5,0-8.2-1.3-11.2-3.9
					C9.9,36.5,8.3,33,8.3,28.5c0-4.3,1.3-7.8,3.8-10.4c2.5-2.6,5.9-3.9,10.2-3.9c0.7,0,1.4,0.2,2.3,0.5v0.5
					c-0.9-0.3-1.6-0.5-2.3-0.5c-4.1,0-7.4,1.3-9.9,3.9c-2.5,2.6-3.8,5.9-3.8,10c0,4.3,1.5,7.8,4.6,10.4c2.9,2.6,6.5,3.8,10.9,3.8
					c4,0,8.9-1.7,14.5-5l-1.4-1.3c-0.7,0.1-1.4,0.2-1.9,0.2c-1.5,0-2.2-0.4-2.2-1.2c0-0.5,0.3-0.8,1-0.8c0.8,0,1.8,0.3,3.2,0.9
					c0.3,0,0.8-0.4,1.6-1.1s1.3-1.3,1.4-1.6c0.2-0.4,0.8-1.8,1.8-4.2c1-2.3,1.4-4.1,1.4-5.4c-1.2,0.2-2.8,0.4-4.8,0.4
					c-0.5,0.8-1.6,2.4-3.1,4.8c-3.7,5.5-7.5,8.3-11.4,8.3c-1.8,0-3.2-0.4-4.3-1.2c-1.3-0.9-1.9-2.2-1.9-3.9c0-2.6,1.1-4.7,3.4-6.4
					c2-1.5,4.4-2.2,7.1-2.2h9.9c0.6-1.4,1.6-3.1,3.1-5c3.4-4.4,7.2-7.3,11.5-8.6c0.3,0,0.4,0.2,0.4,0.6c0,0.3-0.4,0.8-1.3,1.7
					c-2.6,2.4-4,5.8-4.4,10.2c2.3-0.9,4.1-2.1,5.4-3.6c1.5-1.7,2.3-3.7,2.3-6c0-3.1-1.4-5.7-4.3-7.6c-2.5-1.7-5.4-2.5-8.7-2.5
					c-3.1,0-6,0.9-8.8,2.7c-3.1,2-4.6,4.5-4.6,7.5c0,3.6,1.4,6,4.2,7.2l-0.1,0.5c-3.1-1.3-4.6-3.8-4.6-7.7c0-3.1,1.6-5.8,4.8-7.9
					c2.8-1.9,5.9-2.9,9.2-2.9c3.4,0,6.4,0.9,9.1,2.7c3,2,4.5,4.7,4.5,8c0,4.7-2.8,8.2-8.3,10.4c-0.1,0.7-0.2,1.8-0.5,3.2
					c-0.3,1.2-1.1,2.6-2.3,4.4c-1.8,2.6-4,4.6-6.6,6l1.2,1.1c4.4-2.7,7.2-4.4,8.4-4.9c1.3-0.6,2.7-1,4.2-1c1.4,0,2.6,0.4,3.7,1.3
					C56.7,33.7,57.3,34.8,57.3,36.1z M37.9,23.7h-8c-2.4,0-4.7,0.7-6.7,2.1c-2.2,1.5-3.4,3.5-3.4,5.8c0,3,1.5,4.6,4.4,4.6
					c2.7,0,5.4-1.6,8.3-4.9C33.6,30.2,35.3,27.7,37.9,23.7z M36.2,35.9c-0.8-0.4-1.4-0.6-1.8-0.6c-0.2,0-0.4,0.1-0.4,0.2
					c0,0.4,0.3,0.6,0.9,0.6C35.2,36.1,35.6,36.1,36.2,35.9z M50.4,11.1c-0.7,0-2.1,0.9-4.2,2.7c-1.2,1-2.2,2-3,2.9
					c-2,2.3-3.4,4.4-4.1,6.3c1.7,0,3.2-0.1,4.4-0.4c0.4-2.8,2.2-6,5.3-9.6C49.9,11.9,50.5,11.2,50.4,11.1
					C50.5,11.1,50.5,11.1,50.4,11.1z M56.7,36.2c0-1.2-0.5-2.2-1.4-2.9c-0.9-0.8-2-1.1-3.3-1.1c-1.5,0-2.9,0.3-4.4,1
					c-0.7,0.4-3.4,1.9-7.9,4.6c3.1,2.6,6.5,3.8,10.3,3.8c1.6,0,3.1-0.5,4.4-1.5C56,39,56.7,37.7,56.7,36.2z"/>
				<path class="st0" d="M66.8,26.9c-0.6,0.8-2.7,3.1-6.1,6.9c-1.4,1.6-2.8,2.4-4,2.4c-1.4,0-2.2-0.8-2.3-2.4
					c-0.1-0.7,0.2-1.5,0.8-2.4l3.3-5c0.4-0.6,0.6-1,0.6-1.2c0-0.2-0.2-0.4-0.6-0.4c-1.1,0-2.4,0.9-4,2.8c-1.2,1.4-2.2,2.8-2.9,4.1
					c-0.2,0.4-0.6,1.2-1.2,2.3c-0.6,1.2-1.2,1.8-1.6,1.8c-0.1,0-0.4-0.1-0.8-0.2c-0.4-0.1-0.6-0.2-0.7-0.2c-0.2,0-0.7,0.4-1.5,1.1
					L51.9,25c0.3-0.6,0.7-1,1.2-1c0.1,0,0.4,0.1,0.7,0.2c0.4,0.1,0.6,0.2,0.7,0.2c0.1,0,0.3-0.2,0.7-0.5c0.4-0.4,0.6-0.6,0.8-0.6
					l-2,3.8c2.5-2.2,4.5-3.3,5.9-3.3c1.2,0,1.8,0.6,1.8,1.8c0,0.6-0.3,1.3-0.8,2.1l-3.7,5.7c-0.5,0.7-0.7,1.2-0.7,1.3
					c0,0.5,0.3,0.7,0.8,0.7c0.8,0,1.9-0.8,3.3-2.4l5.8-6.4L66.8,26.9z"/>
				<path class="st0" d="M74.7,26.9c-5.1,5.6-8.7,9.1-10.9,10.6c-0.7,1.9-1.6,4.1-2.7,6.6c-1.3,3-3.2,4.5-5.6,4.5
					c-0.9,0-1.7-0.3-2.4-0.8c-0.8-0.6-1.1-1.3-1.1-2.1c0-1.7,1.1-3.3,3.4-4.9c1.9-1.3,3.8-2.2,5.7-2.7c1.5-4.3,3.4-8.6,5.8-12.8
					c0.5-0.9,1-1.4,1.5-1.4c0.1,0,0.3,0.1,0.6,0.2c0.3,0.1,0.5,0.2,0.7,0.2c0.1,0,0.3-0.2,0.7-0.5c0.4-0.4,0.6-0.6,0.8-0.6L64,36.9
					c1.8-1.4,5.3-4.8,10.4-10.2L74.7,26.9z M60.8,38.9c-1.5,0.1-3.2,0.9-5.1,2.3c-2.1,1.5-3.2,3-3.2,4.4c0,1,0.6,1.5,1.7,1.5
					c1.4,0,2.9-1.3,4.5-3.8C59.7,41.6,60.4,40.1,60.8,38.9z M73.4,19.2c0,0.6-0.2,1.1-0.6,1.5c-0.4,0.4-0.9,0.7-1.5,0.7
					c-1,0-1.5-0.5-1.5-1.5c0-0.6,0.2-1.1,0.7-1.5c0.4-0.4,1-0.7,1.5-0.7C72.9,17.7,73.4,18.2,73.4,19.2z"/>
				<path class="st0" d="M91.6,26.9c-5,6.1-8.5,9.2-10.4,9.2c-1.3,0-2.3-0.8-3-2.3c-1.1,1.5-2.4,2.3-3.8,2.3c-1.8,0-2.7-1.3-2.7-3.9
					c0-2.2,0.9-4.2,2.7-6c1.8-1.7,3.8-2.6,6.1-2.6c0.9,0,1.6,0.3,2,1c0.3-0.4,0.6-0.6,0.8-0.6c0.1,0,0.4,0,0.9,0.1
					c0.4,0.1,0.7,0.1,0.8,0.1c0.1,0,0.4-0.2,0.8-0.6c0.1-0.2,0.3-0.3,0.5-0.5L81.2,33c-0.4,0.8-0.7,1.5-0.7,1.8
					c0,0.5,0.3,0.8,0.9,0.8c0.9,0,2.6-1.3,5.2-3.8c1.8-1.8,3.4-3.5,4.7-5.1L91.6,26.9z M82,25.3c0-0.6-0.3-1-0.8-1
					c-1.6,0-3.2,1.4-4.9,4.1c-1.5,2.4-2.3,4.3-2.3,5.8c0,0.9,0.3,1.3,0.8,1.3c1.1,0,2.1-0.9,3.1-2.6C80.6,28.4,82,25.8,82,25.3z"/>
			</g>
		</g>
		<g>
			<path class="st1" d="M20.5,10.5c0-0.1-0.1-0.2-0.2-0.2c-0.1,0-0.2,0.1-0.2,0.2c0,0,0,0,0,0.1c-0.3,0.5-1.4,2.2-4,3.3
				c0,0-0.1,0-0.1,0c1.6-1.5,2-4,2.1-4.6c0,0,0.1-0.1,0.1-0.1c0-0.1-0.1-0.2-0.2-0.2c-0.1,0-0.2,0.1-0.2,0.2c0,0,0,0.1,0,0.1
				c-0.1,0.6-0.6,3.3-2.2,4.7c-0.1,0-0.1,0-0.1,0l0-0.2c1.4-2.3,2-6.3,2-6.3c0.4-3.2-1.2-5-1.2-5c-0.8-0.9-0.9-0.9-1.3-1
				c-1.4-0.2-3.8,2.7-3.8,2.7c-1-0.8-1.3-0.9-1.3-0.9C8.8,2.3,8,3,7.5,3.3C6.3,4.2,5.9,6.2,5.9,6.2C5.7,6.9,5.7,7.1,5.6,7.5
				C5.5,7.9,5.4,8.2,5.4,8.6c-0.1,2.5,2.2,3.5,2.2,3.5c-0.8,0.3-0.7,0.6-0.7,0.6C5.7,12.7,5,13.2,5,13.2c-0.3,0.2-0.1,0.6-0.1,0.6
				c0,0.3-0.4,0.6-0.4,0.6C4.3,14.6,4.4,15,4.4,15c0,0.2-0.1,0.5-0.1,0.5L4,15.7c-0.2,0.1,0,0.6,0,0.6C4.2,16.7,4,16.7,4,16.7
				l-0.7,0.4c-0.2,0.1-0.6,0.1-0.6,0.1C1.6,17.1,1.7,18,1.7,18c-0.5,0.4,0.1,0.9,0.1,0.9c0.3,0.3,0.8,0,0.8,0l0.7-0.7
				c0.5-0.3,1.2,0.3,1.2,0.3C5,19.2,6,19,6,19c0.2,0.4,0.7,0.3,0.7,0.3C6.8,19.4,7,19.5,7,19.5c0.7,0.2,1.6-0.4,1.6-0.4l2.4-1.5
				c-1.8,1.4-2.3,2.8-2.3,2.8c3-0.5,4.6-3.4,4.6-3.4c1.5-0.2,2.1-1.8,2.1-1.8c1.1,0.2,1-0.6,1-0.6c0-0.2,0-0.4-0.1-0.5
				c2.6-1.2,3.8-2.9,4-3.4C20.5,10.7,20.5,10.6,20.5,10.5z"/>
			<path class="st2" d="M14.7,14.8c0,0,0.7-2.1,0.5-5.4c0,0-0.1-2.2-0.1-2.4c0-0.1-0.2-0.6,0.4-1c0,0,1-0.8,1.2,0.4
				c0,0,0.7,2.5-1.8,8.4C14.9,14.8,14.8,15,14.7,14.8z"/>
			<path class="st2" d="M14.1,15.1c0,0,0.1-1.6-1.4-4.5c0,0-1.3-2.3-1.4-2.4c-0.1-0.1-0.5-0.9-0.2-1.2c0.2-0.2,0.7-0.7,1.3,0
				c0,0,1.9,1.9,1.9,8C14.3,15,14.4,15.2,14.1,15.1z"/>
			<path class="st3" d="M12.4,4.8c0.2-0.1,0.8-0.6,1.3-0.2c0,0,1.2,1,0.9,1.2c0,0,0.1,0.1-0.4,0.1c0,0,0,0,0,0c0,0-0.5,0.1-0.7,0.3
				c0,0,0,0,0,0l-1-1.2C12.3,4.8,12.3,4.8,12.4,4.8z"/>
			<path class="st4" d="M13.1,4.4c0,0,0.9,1.1,0.9,1.5c0,0,0.1,0,0.4,0c0,0,0.1,0,0.1,0c0,0,0.1-0.1,0-0.4
				C14.6,5.5,13.8,4.2,13.1,4.4z"/>
			<path class="st5" d="M15,5.5c0,0-0.2-0.5-0.5-0.6c0,0-0.8-0.5-0.2-0.9c0,0,0.8-1,1.5-0.1c0,0,0.7,0.8,0.5,1.5c0,0-0.1,0.1-0.4,0
				c0,0-0.4-0.1-0.6,0.1C15.4,5.5,15.2,5.8,15,5.5z"/>
			<path class="st3" d="M12.4,3.8c0.3-0.6,1.5-1.9,2.4-1.4c0,0,0.2,0.1,0.3,0.2c0.1,0.1,0.2,0.3,0.1,0.4c-0.1,0.1-0.2,0.1-0.5,0.2
				c-0.1,0.1-0.3,0.2-0.4,0.3c-0.1,0.1-0.3,0.2-0.5,0.3c-0.2,0.1-0.6,0.2-0.9,0.3C12.7,4.1,12.1,4.3,12.4,3.8z"/>
			<path class="st4" d="M12.5,3.7l0.3,0.3c0,0-0.4,0.2-0.5,0C12.3,4.1,12.3,4,12.5,3.7z"/>
			<path class="st6" d="M13.5,6.4c0,0,0.9,1.6,1,2.8c0,0,0.2,0.3,0.4-0.1V7.2c0,0,0-0.7-0.7-1C14,6.2,13.7,6.2,13.5,6.4z"/>
			<path class="st4" d="M14.2,6.3c0,0,0.6,1.2,0.7,1.5c0,0,0.1-1-0.3-1.4C14.4,6.3,14.2,6.3,14.2,6.3z"/>
			<path class="st5" d="M7,5.5c0,0-0.3,0-0.1-0.5c0,0,0.9-1.6,1.9-1.3c0,0,0.9,0.2,0.5,0.6L9,4.4c0,0-0.5,0.7-1.3,0.8
				C7.6,5.3,7.2,5.6,7,5.5z"/>
			<path class="st7" d="M7.1,7.9C6.9,7.8,6.7,7.7,6.6,7.6c-0.2-0.2-0.3-0.5,0-0.8c0.2-0.2,0.6-0.3,0.6-0.7c0,0,0.4-0.8,1.2-0.5
				c0,0,1.5,0.7,1.6,1c0,0,0.1,0.2-0.3,0.2c-0.4,0-0.9-0.2-1.4,0.8C8.4,7.7,8.2,8.2,7.1,7.9z"/>
			<path class="st3" d="M10.5,6.6c0,0-0.6-0.6-1-0.7c0,0-0.8-0.4-0.2-1c0,0,0.6-0.7,1.5,0c0,0,1.2,1,1.2,1.3c0,0,0,0.2-0.7,0.1
				C11.2,6.3,10.8,6.7,10.5,6.6z"/>
			<path class="st8" d="M9.2,8.6C9,8.5,8.8,8.3,8.8,7.9c0-0.3,0.2-0.5,0.4-0.6c0.2-0.1,0.6-0.2,1.1,0c0.1,0,0.1,0.1,0.2,0.1
				c0.1,0.1,0.4,0.4,0.6,0.9c0,0,0.6,1.2,0.7,1.4c0,0.1-0.1,0.2-0.3,0c0,0-0.1-0.1-0.1-0.1c-0.3-0.2-1.5-0.9-1.9-0.9
				C9.3,8.7,9.3,8.7,9.2,8.6z"/>
			<path class="st9" d="M7.1,9.6c0,0-0.7-0.3-0.8-0.5C6.1,8.9,6,8.5,6.3,8.2c0.2-0.2,0.5-0.2,1,0c0,0,0.8,0.2,0.5,0.5
				C7.8,8.7,7.5,8.9,7.5,9.1l0,0.3C7.5,9.3,7.5,9.8,7.1,9.6z"/>
			<path class="st10" d="M8.5,10.2c0,0,3.2,1.2,4.1,2c0,0,0.5,0.3,0.3-0.4c0,0-0.5-1.1-1.8-1.9L9.5,9c0,0-0.6-0.4-1.1-0.1
				C8.1,9,7.9,9.3,7.9,9.6C7.9,9.8,8,10.1,8.5,10.2z"/>
			<path class="st10" d="M8,10.9c0,0,0.2-0.6,1.5,0.1c0,0,2.8,1.1,3.5,2.2c0.2,0.3,0.5,0.8,0.6,1.6c0,0-1.2-0.4-2.5-1.3
				C10.3,13,8,11.7,8,10.9z"/>
			<path class="st9" d="M6.5,9.7c-0.1,0-0.1,0-0.2,0C6.2,9.8,6.2,10,6.4,10.3c0,0,0.7,1.2,1.3,1.2c0,0,0-0.6-0.1-1
				c0-0.1,0-0.1-0.1-0.2L6.5,9.7z"/>
			<path class="st10" d="M4.9,17.8c0,0-0.5,0-0.4-0.5l0.3-0.2c0,0,0.3-0.1,0.1-0.3l-0.3-0.2c0,0-0.3-0.5,0.3-0.5
				c0,0,1.1,0.2,1.3,0.1c0,0,0.5-0.1,0.3,0.4c0,0-0.3,0.2,0,0.6c0,0,0.4,0.5-0.1,0.6C6.4,17.7,5.7,17.9,4.9,17.8z"/>
			<path class="st10" d="M5.1,15.8c0,0-0.6,0-0.2-0.5c0,0,0.1-0.2,0.1-0.3c0,0-0.2-0.5,0.6-0.4c0,0,1,0.1,1.2,0.1
				c0,0,0.5-0.1,0.3,0.4c0,0,0,0.5-0.4,0.7S5.1,15.8,5.1,15.8z"/>
			<path class="st11" d="M7.6,13.1H6.5c0,0-0.7,0-0.7,0.4c0,0,0.1,0.3-0.1,0.4c0,0-0.4,0.4,0.2,0.4l0.9,0c0,0,0.5,0.1,0.5-0.4
				c0,0-0.1-0.3,0.1-0.5C7.4,13.5,7.8,13.2,7.6,13.1z"/>
			<path class="st12" d="M4.9,18.3C4.9,18.1,5,18,5.2,18h1.2c0,0,0.3,0,0.4,0.3c0,0,0.2,0.5,0.5,0.6c0,0,0.6,0.2,0,0.4
				c0,0-0.8-0.3-1-0.6c0,0,0-0.1-0.4,0C5.9,18.7,4.8,18.8,4.9,18.3z"/>
			<path class="st13" d="M8.9,14.7c0,0-1.4-0.3-0.8-1.2c0,0,0.4-0.6,1.9,0.2c0,0,1.7,0.8,3.2,2.1L13,15.8
				C13,15.8,10.2,14.9,8.9,14.7z"/>
			<path class="st14" d="M8.5,15.8c0,0-1,0.2-1-0.6c0,0,0.2-0.6,1.1-0.3c0,0,0.2,0.2,1.1,0.3c0,0,0.8,0,0.5,0.3
				C10.2,15.4,10,15.8,8.5,15.8z"/>
			<path class="st15" d="M7.9,17.4c0,0-0.6,0.1-0.9-0.3c-0.1-0.3,0-0.7,0.3-0.8c0.2-0.1,0.4-0.1,0.6-0.1c0,0,1,0.1,1.3,0
				c0,0,0.7-0.2,0.9-0.3l0.4-0.3c0.1-0.1,0.3-0.1,0.4-0.1c0.1,0,0.2,0,0.2,0.1c0,0-0.3,0.2-0.5,0.3l-1.7,1
				C9.1,16.8,8.3,17.3,7.9,17.4z"/>
			<path class="st16" d="M8.9,18.3c0,0-0.3,0.3-0.7,0.4c-0.3,0-0.6-0.1-0.8-0.4c-0.1-0.2-0.2-0.4,0.1-0.6c0.1-0.1,0.3-0.1,0.5-0.1
				h0.3c0,0,0.1,0,0.1,0c0.1,0,0.4-0.1,0.6-0.2c0,0,1.8-1,2.2-1.3c0,0,0.7-0.4,1.3-0.2c0,0,0.3,0.1,0.5,0.3c0,0-1.4,0.4-1.8,0.7
				C11.1,16.8,8.9,18.2,8.9,18.3z"/>
			<path class="st10" d="M7.8,12.6c0,0,0.2-0.2,0.4-0.2c0,0,0.6,0.3,0.7,0.5L7.8,12.6z"/>
			<path class="st17" d="M2.3,18.7c-0.1,0-0.3-0.1-0.3-0.3c0-0.2,0.2-0.3,0.3-0.3c0.1,0,0.1,0,0.2,0h0.1c0,0,0.2-0.2,0.3-0.1
				C2.9,18,2.7,18.7,2.3,18.7z"/>
			<path class="st17" d="M2.3,17.7c-0.1-0.2,0-0.3,0.2-0.3c0.1,0,0.2,0,0.3,0c0.1,0,0.2,0,0.3,0c0.1,0,0.2-0.1,0.2,0.1
				c0,0,0,0.1-0.2,0.1c0,0-0.2,0-0.3,0.1C2.6,17.8,2.4,17.8,2.3,17.7z"/>
		</g>
	</g>
	<g id="Branco_3_">
		<path class="st18" d="M64.3,45.4l-0.4-1.6l0,0v1.8c0,0.1,0,0.2-0.1,0.2c0,0-0.1,0.1-0.2,0.1c-0.1,0-0.1,0-0.2-0.1
			c0,0-0.1-0.1-0.1-0.2v-2.1c0-0.1,0-0.2,0.1-0.2c0.1,0,0.1-0.1,0.2-0.1h0.2c0.1,0,0.2,0,0.2,0c0,0,0.1,0,0.1,0.1s0,0.1,0.1,0.2
			l0.4,1.4l0,0l0.3-1.4c0-0.1,0.1-0.2,0.1-0.2s0.1-0.1,0.1-0.1c0,0,0.1,0,0.2,0h0.2c0.1,0,0.2,0,0.2,0.1c0.1,0,0.1,0.1,0.1,0.2v2.1
			c0,0.1,0,0.2-0.1,0.2c0,0-0.1,0.1-0.2,0.1c-0.1,0-0.1,0-0.2-0.1c0,0-0.1-0.1-0.1-0.2l0-1.8l0,0L65,45.5c0,0.1,0,0.2-0.1,0.2
			c0,0.1,0,0.1-0.1,0.1c0,0-0.1,0.1-0.2,0.1c-0.1,0-0.1,0-0.2,0c0,0-0.1-0.1-0.1-0.1c0,0,0-0.1-0.1-0.1
			C64.3,45.6,64.3,45.5,64.3,45.4z"/>
		<path class="st18" d="M68.3,44.9c0,0.1,0,0.3-0.1,0.4c0,0.1-0.1,0.2-0.2,0.3c-0.1,0.1-0.2,0.2-0.3,0.2c-0.1,0-0.3,0.1-0.4,0.1
			c-0.1,0-0.3,0-0.4-0.1c-0.1,0-0.2-0.1-0.3-0.2c-0.1-0.1-0.2-0.2-0.2-0.3c0-0.1-0.1-0.3-0.1-0.4c0-0.1,0-0.3,0.1-0.4
			c0-0.1,0.1-0.2,0.2-0.3c0.1-0.1,0.2-0.2,0.3-0.2s0.3-0.1,0.4-0.1c0.1,0,0.3,0,0.4,0.1c0.1,0,0.2,0.1,0.3,0.2
			c0.1,0.1,0.2,0.2,0.2,0.3C68.2,44.6,68.3,44.8,68.3,44.9z M67.8,44.9c0-0.2,0-0.4-0.1-0.5c-0.1-0.1-0.2-0.2-0.4-0.2
			c-0.1,0-0.2,0-0.3,0.1c-0.1,0-0.1,0.1-0.2,0.2c0,0.1-0.1,0.2-0.1,0.3c0,0.1,0,0.2,0.1,0.3c0,0.1,0.1,0.2,0.2,0.2
			c0.1,0.1,0.2,0.1,0.3,0.1c0.1,0,0.3-0.1,0.4-0.2C67.7,45.3,67.8,45.1,67.8,44.9z"/>
		<path class="st18" d="M70,45.6L70,45.6c-0.1,0-0.1,0.1-0.2,0.1c-0.1,0-0.1,0.1-0.2,0.1c-0.1,0-0.2,0-0.2,0c-0.1,0-0.2,0-0.3-0.1
			c-0.1,0-0.2-0.1-0.3-0.2c-0.1-0.1-0.1-0.2-0.2-0.3c0-0.1-0.1-0.3-0.1-0.4c0-0.3,0.1-0.5,0.2-0.7c0.1-0.2,0.3-0.3,0.6-0.3
			c0.1,0,0.3,0,0.4,0.1c0.1,0,0.2,0.1,0.3,0.2v-0.7c0-0.1,0-0.2,0.1-0.2s0.1-0.1,0.2-0.1c0.1,0,0.1,0,0.2,0.1c0,0,0.1,0.1,0.1,0.2
			v2.1c0,0.1,0,0.2-0.1,0.2c0,0-0.1,0.1-0.2,0.1c-0.1,0-0.1,0-0.2-0.1S70,45.7,70,45.6z M69,44.9c0,0.1,0,0.2,0.1,0.3
			c0,0.1,0.1,0.2,0.2,0.2c0.1,0,0.1,0.1,0.2,0.1c0.1,0,0.2,0,0.2-0.1c0.1,0,0.1-0.1,0.2-0.2c0-0.1,0.1-0.2,0.1-0.3
			c0-0.1,0-0.2-0.1-0.3c0-0.1-0.1-0.2-0.2-0.2c-0.1,0-0.2-0.1-0.2-0.1c-0.1,0-0.2,0-0.2,0.1c-0.1,0.1-0.1,0.1-0.2,0.2
			C69,44.7,69,44.8,69,44.9z"/>
		<path class="st18" d="M72.1,45.6c-0.1,0.1-0.2,0.2-0.3,0.2c-0.1,0-0.2,0.1-0.4,0.1c-0.1,0-0.2,0-0.3-0.1c-0.1,0-0.2-0.1-0.2-0.2
			c-0.1-0.1-0.1-0.2-0.1-0.3c0-0.1,0-0.2,0.1-0.3c0.1-0.1,0.2-0.2,0.3-0.2c0,0,0.1,0,0.2,0c0.1,0,0.2,0,0.3-0.1c0.1,0,0.2,0,0.3-0.1
			c0-0.1,0-0.2-0.1-0.3c0-0.1-0.1-0.1-0.3-0.1c-0.1,0-0.2,0-0.3,0.1c-0.1,0-0.1,0.1-0.2,0.2s-0.1,0.1-0.1,0.1c0,0-0.1,0-0.1,0
			c-0.1,0-0.1,0-0.1-0.1s-0.1-0.1-0.1-0.1c0-0.1,0-0.2,0.1-0.2c0.1-0.1,0.2-0.1,0.3-0.2c0.1-0.1,0.3-0.1,0.5-0.1
			c0.2,0,0.4,0,0.5,0.1c0.1,0.1,0.2,0.1,0.3,0.2c0.1,0.1,0.1,0.3,0.1,0.4c0,0.1,0,0.2,0,0.3c0,0.1,0,0.2,0,0.3c0,0.1,0,0.2,0,0.3
			c0,0.1,0,0.2,0,0.2c0,0,0,0.1-0.1,0.1c0,0-0.1,0.1-0.2,0.1c0,0-0.1,0-0.1-0.1C72.3,45.8,72.2,45.7,72.1,45.6z M72.1,44.9
			c-0.1,0-0.2,0.1-0.3,0.1c-0.1,0-0.2,0.1-0.3,0.1c-0.1,0-0.1,0-0.1,0.1c0,0-0.1,0.1-0.1,0.2c0,0.1,0,0.1,0.1,0.2
			c0.1,0.1,0.1,0.1,0.2,0.1c0.1,0,0.2,0,0.3-0.1c0.1,0,0.1-0.1,0.2-0.2C72.1,45.3,72.1,45.2,72.1,44.9L72.1,44.9z"/>
		<path class="st18" d="M74.7,45.3c0,0.1,0,0.2-0.1,0.3c-0.1,0.1-0.2,0.2-0.3,0.2c-0.1,0-0.3,0.1-0.5,0.1c-0.2,0-0.3,0-0.4-0.1
			c-0.1-0.1-0.2-0.1-0.3-0.2C73,45.5,73,45.5,73,45.4c0-0.1,0-0.1,0.1-0.1c0,0,0.1-0.1,0.1-0.1c0.1,0,0.1,0,0.1,0
			c0,0,0.1,0.1,0.1,0.1c0,0.1,0.1,0.2,0.2,0.2c0.1,0,0.2,0.1,0.3,0.1c0.1,0,0.2,0,0.2-0.1c0.1,0,0.1-0.1,0.1-0.1
			c0-0.1,0-0.1-0.1-0.2c-0.1,0-0.2-0.1-0.3-0.1c-0.2,0-0.3-0.1-0.4-0.1c-0.1,0-0.2-0.1-0.3-0.2C73,44.7,73,44.6,73,44.5
			c0-0.1,0-0.2,0.1-0.3c0.1-0.1,0.1-0.2,0.3-0.2c0.1-0.1,0.2-0.1,0.4-0.1c0.1,0,0.2,0,0.3,0c0.1,0,0.2,0.1,0.3,0.1
			c0.1,0,0.1,0.1,0.2,0.1c0,0.1,0.1,0.1,0.1,0.2c0,0.1,0,0.1-0.1,0.1c0,0-0.1,0.1-0.2,0.1c0,0-0.1,0-0.1,0c0,0-0.1-0.1-0.1-0.1
			c0,0-0.1-0.1-0.1-0.1s-0.1,0-0.2,0c-0.1,0-0.2,0-0.2,0.1c-0.1,0-0.1,0.1-0.1,0.1c0,0.1,0,0.1,0.1,0.1c0,0,0.1,0.1,0.2,0.1
			c0.1,0,0.2,0,0.3,0.1c0.2,0,0.3,0.1,0.4,0.1c0.1,0.1,0.2,0.1,0.2,0.2C74.6,45.1,74.7,45.2,74.7,45.3z"/>
		<path class="st18" d="M77.3,45h-1c0,0.1,0,0.2,0.1,0.3c0,0.1,0.1,0.1,0.2,0.2c0.1,0,0.2,0.1,0.2,0.1c0.1,0,0.1,0,0.2,0
			c0,0,0.1,0,0.1-0.1c0,0,0.1-0.1,0.1-0.1c0,0,0.1-0.1,0.1-0.1c0,0,0.1,0,0.1,0c0,0,0.1,0,0.1,0c0,0,0,0.1,0,0.1c0,0,0,0.1-0.1,0.2
			c0,0.1-0.1,0.1-0.2,0.2c-0.1,0.1-0.2,0.1-0.3,0.1c-0.1,0-0.2,0.1-0.4,0.1c-0.3,0-0.6-0.1-0.7-0.3c-0.2-0.2-0.3-0.4-0.3-0.7
			c0-0.1,0-0.3,0.1-0.4c0-0.1,0.1-0.2,0.2-0.3c0.1-0.1,0.2-0.2,0.3-0.2c0.1,0,0.3-0.1,0.4-0.1c0.2,0,0.4,0,0.5,0.1
			c0.1,0.1,0.2,0.2,0.3,0.3c0.1,0.1,0.1,0.3,0.1,0.4c0,0.1,0,0.2-0.1,0.2C77.6,45,77.5,45,77.3,45z M76.4,44.8h0.9
			c0-0.2-0.1-0.3-0.1-0.4c-0.1-0.1-0.2-0.1-0.3-0.1c-0.1,0-0.2,0-0.3,0.1C76.4,44.5,76.4,44.6,76.4,44.8z"/>
		<path class="st18" d="M80.8,45.6l-0.1-0.3h-1.1l-0.1,0.3c0,0.1-0.1,0.2-0.1,0.3c0,0-0.1,0.1-0.2,0.1c-0.1,0-0.1,0-0.2-0.1
			c-0.1,0-0.1-0.1-0.1-0.2c0,0,0-0.1,0-0.1c0,0,0-0.1,0.1-0.2l0.7-1.7c0,0,0-0.1,0.1-0.2c0-0.1,0.1-0.1,0.1-0.2c0,0,0.1-0.1,0.1-0.1
			c0,0,0.1,0,0.2,0c0.1,0,0.1,0,0.2,0c0,0,0.1,0.1,0.1,0.1c0,0,0.1,0.1,0.1,0.1s0,0.1,0.1,0.2l0.7,1.7c0.1,0.1,0.1,0.2,0.1,0.3
			c0,0.1,0,0.1-0.1,0.2c-0.1,0.1-0.1,0.1-0.2,0.1c0,0-0.1,0-0.1,0c0,0-0.1,0-0.1-0.1c0,0,0-0.1-0.1-0.1
			C80.8,45.6,80.8,45.6,80.8,45.6z M79.7,44.8h0.8l-0.3-1.1h-0.1L79.7,44.8z"/>
		<path class="st18" d="M83.4,45.3c0,0.1,0,0.1-0.1,0.2c0,0.1-0.1,0.1-0.2,0.2c-0.1,0.1-0.2,0.1-0.3,0.2c-0.1,0-0.2,0.1-0.4,0.1
			c-0.3,0-0.5-0.1-0.7-0.3c-0.2-0.2-0.3-0.4-0.3-0.7c0-0.2,0-0.4,0.1-0.5c0.1-0.2,0.2-0.3,0.3-0.4c0.1-0.1,0.3-0.1,0.5-0.1
			c0.1,0,0.2,0,0.3,0.1c0.1,0,0.2,0.1,0.3,0.1c0.1,0.1,0.1,0.1,0.2,0.2c0,0.1,0.1,0.1,0.1,0.2c0,0.1,0,0.1-0.1,0.1
			c0,0-0.1,0.1-0.2,0.1c0,0-0.1,0-0.1,0c0,0-0.1-0.1-0.1-0.1c-0.1-0.1-0.1-0.2-0.2-0.2c-0.1,0-0.1-0.1-0.2-0.1
			c-0.1,0-0.3,0.1-0.3,0.2c-0.1,0.1-0.1,0.3-0.1,0.5c0,0.1,0,0.2,0,0.3c0,0.1,0.1,0.1,0.1,0.2c0,0.1,0.1,0.1,0.2,0.1
			c0.1,0,0.1,0,0.2,0c0.1,0,0.2,0,0.3-0.1c0.1,0,0.1-0.1,0.2-0.2c0-0.1,0.1-0.1,0.1-0.1c0,0,0.1,0,0.1,0c0.1,0,0.1,0,0.1,0.1
			C83.4,45.2,83.4,45.2,83.4,45.3z"/>
		<path class="st18" d="M85.2,45h-1c0,0.1,0,0.2,0.1,0.3c0,0.1,0.1,0.1,0.2,0.2c0.1,0,0.2,0.1,0.2,0.1c0.1,0,0.1,0,0.2,0
			c0,0,0.1,0,0.1-0.1c0,0,0.1-0.1,0.1-0.1c0,0,0.1-0.1,0.1-0.1c0,0,0.1,0,0.1,0c0,0,0.1,0,0.1,0c0,0,0,0.1,0,0.1c0,0,0,0.1-0.1,0.2
			c0,0.1-0.1,0.1-0.2,0.2c-0.1,0.1-0.2,0.1-0.3,0.1c-0.1,0-0.2,0.1-0.4,0.1c-0.3,0-0.6-0.1-0.7-0.3c-0.2-0.2-0.3-0.4-0.3-0.7
			c0-0.1,0-0.3,0.1-0.4s0.1-0.2,0.2-0.3c0.1-0.1,0.2-0.2,0.3-0.2s0.3-0.1,0.4-0.1c0.2,0,0.4,0,0.5,0.1s0.2,0.2,0.3,0.3
			c0.1,0.1,0.1,0.3,0.1,0.4c0,0.1,0,0.2-0.1,0.2C85.4,45,85.3,45,85.2,45z M84.2,44.8h0.9c0-0.2-0.1-0.3-0.1-0.4
			c-0.1-0.1-0.2-0.1-0.3-0.1c-0.1,0-0.2,0-0.3,0.1C84.3,44.5,84.3,44.6,84.2,44.8z"/>
		<path class="st18" d="M87.6,45.3c0,0.1,0,0.2-0.1,0.3c-0.1,0.1-0.2,0.2-0.3,0.2c-0.1,0-0.3,0.1-0.5,0.1c-0.2,0-0.3,0-0.4-0.1
			c-0.1-0.1-0.2-0.1-0.3-0.2c-0.1-0.1-0.1-0.2-0.1-0.2c0-0.1,0-0.1,0.1-0.1c0,0,0.1-0.1,0.1-0.1c0.1,0,0.1,0,0.1,0
			c0,0,0.1,0.1,0.1,0.1c0,0.1,0.1,0.2,0.2,0.2c0.1,0,0.2,0.1,0.3,0.1c0.1,0,0.2,0,0.2-0.1c0.1,0,0.1-0.1,0.1-0.1
			c0-0.1,0-0.1-0.1-0.2s-0.2-0.1-0.3-0.1c-0.2,0-0.3-0.1-0.4-0.1c-0.1,0-0.2-0.1-0.3-0.2c-0.1-0.1-0.1-0.2-0.1-0.3
			c0-0.1,0-0.2,0.1-0.3c0.1-0.1,0.1-0.2,0.3-0.2c0.1-0.1,0.2-0.1,0.4-0.1c0.1,0,0.2,0,0.3,0c0.1,0,0.2,0.1,0.3,0.1
			c0.1,0,0.1,0.1,0.2,0.1c0,0.1,0.1,0.1,0.1,0.2c0,0.1,0,0.1-0.1,0.1c0,0-0.1,0.1-0.2,0.1c0,0-0.1,0-0.1,0c0,0-0.1-0.1-0.1-0.1
			c0,0-0.1-0.1-0.1-0.1c0,0-0.1,0-0.2,0c-0.1,0-0.2,0-0.2,0.1c-0.1,0-0.1,0.1-0.1,0.1c0,0.1,0,0.1,0.1,0.1c0,0,0.1,0.1,0.2,0.1
			c0.1,0,0.2,0,0.3,0.1c0.2,0,0.3,0.1,0.4,0.1c0.1,0.1,0.2,0.1,0.2,0.2C87.5,45.1,87.6,45.2,87.6,45.3z"/>
		<path class="st18" d="M89.5,45.3c0,0.1,0,0.2-0.1,0.3c-0.1,0.1-0.2,0.2-0.3,0.2c-0.1,0-0.3,0.1-0.5,0.1c-0.2,0-0.3,0-0.4-0.1
			c-0.1-0.1-0.2-0.1-0.3-0.2c-0.1-0.1-0.1-0.2-0.1-0.2c0-0.1,0-0.1,0.1-0.1c0,0,0.1-0.1,0.1-0.1c0.1,0,0.1,0,0.1,0
			c0,0,0.1,0.1,0.1,0.1c0,0.1,0.1,0.2,0.2,0.2c0.1,0,0.2,0.1,0.3,0.1c0.1,0,0.2,0,0.2-0.1c0.1,0,0.1-0.1,0.1-0.1
			c0-0.1,0-0.1-0.1-0.2s-0.2-0.1-0.3-0.1c-0.2,0-0.3-0.1-0.4-0.1c-0.1,0-0.2-0.1-0.3-0.2c-0.1-0.1-0.1-0.2-0.1-0.3
			c0-0.1,0-0.2,0.1-0.3c0.1-0.1,0.1-0.2,0.3-0.2c0.1-0.1,0.2-0.1,0.4-0.1c0.1,0,0.2,0,0.3,0c0.1,0,0.2,0.1,0.3,0.1
			c0.1,0,0.1,0.1,0.2,0.1c0,0.1,0.1,0.1,0.1,0.2c0,0.1,0,0.1-0.1,0.1c0,0-0.1,0.1-0.2,0.1c0,0-0.1,0-0.1,0c0,0-0.1-0.1-0.1-0.1
			c0,0-0.1-0.1-0.1-0.1c0,0-0.1,0-0.2,0c-0.1,0-0.2,0-0.2,0.1c-0.1,0-0.1,0.1-0.1,0.1c0,0.1,0,0.1,0.1,0.1c0,0,0.1,0.1,0.2,0.1
			c0.1,0,0.2,0,0.3,0.1c0.2,0,0.3,0.1,0.4,0.1c0.1,0.1,0.2,0.1,0.2,0.2C89.5,45.1,89.5,45.2,89.5,45.3z"/>
		<path class="st18" d="M91.8,44.9c0,0.1,0,0.3-0.1,0.4c0,0.1-0.1,0.2-0.2,0.3c-0.1,0.1-0.2,0.2-0.3,0.2c-0.1,0-0.3,0.1-0.4,0.1
			c-0.1,0-0.3,0-0.4-0.1c-0.1,0-0.2-0.1-0.3-0.2c-0.1-0.1-0.2-0.2-0.2-0.3c0-0.1-0.1-0.3-0.1-0.4c0-0.1,0-0.3,0.1-0.4
			c0-0.1,0.1-0.2,0.2-0.3c0.1-0.1,0.2-0.2,0.3-0.2c0.1,0,0.3-0.1,0.4-0.1c0.1,0,0.3,0,0.4,0.1c0.1,0,0.2,0.1,0.3,0.2
			c0.1,0.1,0.2,0.2,0.2,0.3C91.8,44.6,91.8,44.8,91.8,44.9z M91.3,44.9c0-0.2,0-0.4-0.1-0.5c-0.1-0.1-0.2-0.2-0.4-0.2
			c-0.1,0-0.2,0-0.3,0.1c-0.1,0-0.1,0.1-0.2,0.2c0,0.1-0.1,0.2-0.1,0.3c0,0.1,0,0.2,0.1,0.3c0,0.1,0.1,0.2,0.2,0.2
			c0.1,0.1,0.2,0.1,0.3,0.1c0.1,0,0.3-0.1,0.4-0.2C91.2,45.3,91.3,45.1,91.3,44.9z M90.9,43.2h0.2c0.1,0,0.1,0,0.1,0
			c0,0,0,0-0.1,0.1c-0.1,0.1-0.1,0.1-0.2,0.2c-0.1,0.1-0.1,0.1-0.1,0.1c-0.1,0-0.1,0.1-0.2,0.1c-0.1,0-0.1,0-0.1,0c0,0,0-0.1,0-0.1
			l0.1-0.1c0-0.1,0.1-0.1,0.1-0.2C90.7,43.2,90.8,43.2,90.9,43.2z"/>
		<path class="st18" d="M92.6,45.2v0.4c0,0.1,0,0.2-0.1,0.2c0,0-0.1,0.1-0.2,0.1c-0.1,0-0.1,0-0.2-0.1c0,0-0.1-0.1-0.1-0.2v-1.4
			c0-0.2,0.1-0.3,0.2-0.3c0.1,0,0.1,0,0.2,0.1s0.1,0.1,0.1,0.2c0.1-0.1,0.1-0.2,0.2-0.2s0.1-0.1,0.2-0.1c0.1,0,0.2,0,0.3,0.1
			c0.1,0.1,0.1,0.1,0.1,0.2c0,0.1,0,0.1-0.1,0.1c0,0-0.1,0.1-0.1,0.1c0,0-0.1,0-0.1,0s-0.1,0-0.2,0c-0.1,0-0.1,0-0.2,0.1
			c0,0-0.1,0.1-0.1,0.2c0,0.1,0,0.2-0.1,0.3C92.7,44.9,92.6,45,92.6,45.2z"/>
		<path class="st18" d="M94,43.7c-0.1,0-0.1,0-0.2-0.1c0,0-0.1-0.1-0.1-0.2c0-0.1,0-0.1,0.1-0.2c0,0,0.1-0.1,0.2-0.1
			c0.1,0,0.1,0,0.2,0.1c0,0,0.1,0.1,0.1,0.2c0,0.1,0,0.1-0.1,0.2C94.1,43.7,94.1,43.7,94,43.7z M94.2,44.2v1.4c0,0.1,0,0.2-0.1,0.2
			c0,0-0.1,0.1-0.2,0.1c-0.1,0-0.1,0-0.2-0.1c0-0.1-0.1-0.1-0.1-0.2v-1.4c0-0.1,0-0.2,0.1-0.2c0,0,0.1-0.1,0.2-0.1
			c0.1,0,0.1,0,0.2,0.1C94.2,44,94.2,44.1,94.2,44.2z"/>
		<path class="st18" d="M96.6,44.9c0,0.1,0,0.3-0.1,0.4c0,0.1-0.1,0.2-0.2,0.3c-0.1,0.1-0.2,0.2-0.3,0.2c-0.1,0-0.3,0.1-0.4,0.1
			c-0.1,0-0.3,0-0.4-0.1c-0.1,0-0.2-0.1-0.3-0.2c-0.1-0.1-0.2-0.2-0.2-0.3c0-0.1-0.1-0.3-0.1-0.4c0-0.1,0-0.3,0.1-0.4
			c0-0.1,0.1-0.2,0.2-0.3c0.1-0.1,0.2-0.2,0.3-0.2s0.3-0.1,0.4-0.1c0.1,0,0.3,0,0.4,0.1c0.1,0,0.2,0.1,0.3,0.2
			c0.1,0.1,0.2,0.2,0.2,0.3C96.5,44.6,96.6,44.8,96.6,44.9z M96.1,44.9c0-0.2,0-0.4-0.1-0.5c-0.1-0.1-0.2-0.2-0.4-0.2
			c-0.1,0-0.2,0-0.3,0.1c-0.1,0-0.1,0.1-0.2,0.2c0,0.1-0.1,0.2-0.1,0.3c0,0.1,0,0.2,0.1,0.3c0,0.1,0.1,0.2,0.2,0.2
			c0.1,0.1,0.2,0.1,0.3,0.1c0.1,0,0.3-0.1,0.4-0.2C96,45.3,96.1,45.1,96.1,44.9z"/>
		<path class="st18" d="M98.5,45.3c0,0.1,0,0.2-0.1,0.3c-0.1,0.1-0.2,0.2-0.3,0.2c-0.1,0-0.3,0.1-0.5,0.1c-0.2,0-0.3,0-0.4-0.1
			c-0.1-0.1-0.2-0.1-0.3-0.2c-0.1-0.1-0.1-0.2-0.1-0.2c0-0.1,0-0.1,0.1-0.1c0,0,0.1-0.1,0.1-0.1c0.1,0,0.1,0,0.1,0
			c0,0,0.1,0.1,0.1,0.1c0,0.1,0.1,0.2,0.2,0.2c0.1,0,0.2,0.1,0.3,0.1c0.1,0,0.2,0,0.2-0.1c0.1,0,0.1-0.1,0.1-0.1
			c0-0.1,0-0.1-0.1-0.2s-0.2-0.1-0.3-0.1c-0.2,0-0.3-0.1-0.4-0.1c-0.1,0-0.2-0.1-0.3-0.2c-0.1-0.1-0.1-0.2-0.1-0.3
			c0-0.1,0-0.2,0.1-0.3c0.1-0.1,0.1-0.2,0.3-0.2c0.1-0.1,0.2-0.1,0.4-0.1c0.1,0,0.2,0,0.3,0c0.1,0,0.2,0.1,0.3,0.1
			c0.1,0,0.1,0.1,0.2,0.1c0,0.1,0.1,0.1,0.1,0.2c0,0.1,0,0.1-0.1,0.1c0,0-0.1,0.1-0.2,0.1c0,0-0.1,0-0.1,0c0,0-0.1-0.1-0.1-0.1
			c0,0-0.1-0.1-0.1-0.1s-0.1,0-0.2,0c-0.1,0-0.2,0-0.2,0.1c-0.1,0-0.1,0.1-0.1,0.1c0,0.1,0,0.1,0.1,0.1c0,0,0.1,0.1,0.2,0.1
			c0.1,0,0.2,0,0.3,0.1c0.2,0,0.3,0.1,0.4,0.1c0.1,0.1,0.2,0.1,0.2,0.2C98.5,45.1,98.5,45.2,98.5,45.3z"/>
	</g>
	<g>
		<g>
			<path class="st10" d="M64.3,45.4l-0.4-1.6l0,0v1.8c0,0.1,0,0.2-0.1,0.2c0,0-0.1,0.1-0.2,0.1c-0.1,0-0.1,0-0.2-0.1
				c0,0-0.1-0.1-0.1-0.2v-2.1c0-0.1,0-0.2,0.1-0.2c0.1,0,0.1-0.1,0.2-0.1h0.2c0.1,0,0.2,0,0.2,0c0,0,0.1,0,0.1,0.1s0,0.1,0.1,0.2
				l0.4,1.4l0,0l0.3-1.4c0-0.1,0.1-0.2,0.1-0.2s0.1-0.1,0.1-0.1c0,0,0.1,0,0.2,0h0.2c0.1,0,0.2,0,0.2,0.1c0.1,0,0.1,0.1,0.1,0.2v2.1
				c0,0.1,0,0.2-0.1,0.2c0,0-0.1,0.1-0.2,0.1c-0.1,0-0.1,0-0.2-0.1c0,0-0.1-0.1-0.1-0.2l0-1.8l0,0L65,45.5c0,0.1,0,0.2-0.1,0.2
				c0,0.1,0,0.1-0.1,0.1c0,0-0.1,0.1-0.2,0.1c-0.1,0-0.1,0-0.2,0c0,0-0.1-0.1-0.1-0.1c0,0,0-0.1-0.1-0.1
				C64.3,45.6,64.3,45.5,64.3,45.4z"/>
			<path class="st0" d="M65.6,43.2h-0.2c-0.1,0-0.2,0-0.2,0c0,0-0.1,0-0.1,0.1c0,0,0,0.1-0.1,0.2L64.7,45l0,0l-0.4-1.4
				c0-0.1-0.1-0.2-0.1-0.2c0,0-0.1-0.1-0.1-0.1c0,0-0.1,0-0.2,0h-0.2c-0.1,0-0.2,0-0.2,0.1c-0.1,0-0.1,0.1-0.1,0.2v2.1
				c0,0.1,0,0.2,0.1,0.2c0,0,0.1,0.1,0.2,0.1c0.1,0,0.1,0,0.2-0.1c0,0,0.1-0.1,0.1-0.2v-1.8l0,0l0.4,1.6c0,0.1,0,0.1,0,0.2
				c0,0.1,0,0.1,0.1,0.1c0,0,0.1,0.1,0.1,0.1c0,0,0.1,0,0.2,0c0.1,0,0.1,0,0.2-0.1c0,0,0.1-0.1,0.1-0.1c0-0.1,0-0.1,0.1-0.2l0.4-1.7
				l0,0l0,1.8c0,0.1,0,0.2,0.1,0.2c0,0,0.1,0.1,0.2,0.1c0.1,0,0.1,0,0.2-0.1c0,0,0.1-0.1,0.1-0.2v-2.1c0-0.1,0-0.2-0.1-0.2
				C65.8,43.3,65.7,43.2,65.6,43.2L65.6,43.2z"/>
		</g>
		<g>
			<path class="st10" d="M68.3,44.9c0,0.1,0,0.3-0.1,0.4c0,0.1-0.1,0.2-0.2,0.3c-0.1,0.1-0.2,0.2-0.3,0.2c-0.1,0-0.3,0.1-0.4,0.1
				c-0.1,0-0.3,0-0.4-0.1c-0.1,0-0.2-0.1-0.3-0.2c-0.1-0.1-0.2-0.2-0.2-0.3c0-0.1-0.1-0.3-0.1-0.4c0-0.1,0-0.3,0.1-0.4
				c0-0.1,0.1-0.2,0.2-0.3c0.1-0.1,0.2-0.2,0.3-0.2s0.3-0.1,0.4-0.1c0.1,0,0.3,0,0.4,0.1c0.1,0,0.2,0.1,0.3,0.2
				c0.1,0.1,0.2,0.2,0.2,0.3C68.2,44.6,68.3,44.8,68.3,44.9z M67.8,44.9c0-0.2,0-0.4-0.1-0.5c-0.1-0.1-0.2-0.2-0.4-0.2
				c-0.1,0-0.2,0-0.3,0.1c-0.1,0-0.1,0.1-0.2,0.2c0,0.1-0.1,0.2-0.1,0.3c0,0.1,0,0.2,0.1,0.3c0,0.1,0.1,0.2,0.2,0.2
				c0.1,0.1,0.2,0.1,0.3,0.1c0.1,0,0.3-0.1,0.4-0.2C67.7,45.3,67.8,45.1,67.8,44.9z"/>
			<path class="st0" d="M67.3,43.9c-0.1,0-0.3,0-0.4,0.1c-0.1,0-0.2,0.1-0.3,0.2c-0.1,0.1-0.1,0.2-0.2,0.3c0,0.1-0.1,0.3-0.1,0.4
				c0,0.1,0,0.3,0.1,0.4c0,0.1,0.1,0.2,0.2,0.3c0.1,0.1,0.2,0.2,0.3,0.2c0.1,0,0.2,0.1,0.4,0.1c0.1,0,0.3,0,0.4-0.1
				c0.1,0,0.2-0.1,0.3-0.2c0.1-0.1,0.2-0.2,0.2-0.3c0-0.1,0.1-0.3,0.1-0.4c0-0.1,0-0.3-0.1-0.4c0-0.1-0.1-0.2-0.2-0.3
				c-0.1-0.1-0.2-0.2-0.3-0.2C67.6,43.9,67.4,43.9,67.3,43.9L67.3,43.9z M67.3,45.5c-0.1,0-0.2,0-0.3-0.1c-0.1-0.1-0.1-0.1-0.2-0.2
				c0-0.1-0.1-0.2-0.1-0.3c0-0.1,0-0.2,0.1-0.3c0-0.1,0.1-0.2,0.2-0.2c0.1,0,0.2-0.1,0.3-0.1c0.1,0,0.3,0.1,0.4,0.2
				c0.1,0.1,0.1,0.3,0.1,0.5c0,0.2,0,0.3-0.1,0.5C67.6,45.5,67.4,45.5,67.3,45.5L67.3,45.5z"/>
		</g>
		<g>
			<path class="st10" d="M70,45.6L70,45.6c-0.1,0-0.1,0.1-0.2,0.1c-0.1,0-0.1,0.1-0.2,0.1c-0.1,0-0.2,0-0.2,0c-0.1,0-0.2,0-0.3-0.1
				c-0.1,0-0.2-0.1-0.3-0.2c-0.1-0.1-0.1-0.2-0.2-0.3c0-0.1-0.1-0.3-0.1-0.4c0-0.3,0.1-0.5,0.2-0.7c0.1-0.2,0.3-0.3,0.6-0.3
				c0.1,0,0.3,0,0.4,0.1c0.1,0,0.2,0.1,0.3,0.2v-0.7c0-0.1,0-0.2,0.1-0.2s0.1-0.1,0.2-0.1c0.1,0,0.1,0,0.2,0.1c0,0,0.1,0.1,0.1,0.2
				v2.1c0,0.1,0,0.2-0.1,0.2c0,0-0.1,0.1-0.2,0.1c-0.1,0-0.1,0-0.2-0.1S70,45.7,70,45.6z M69,44.9c0,0.1,0,0.2,0.1,0.3
				c0,0.1,0.1,0.2,0.2,0.2c0.1,0,0.1,0.1,0.2,0.1c0.1,0,0.2,0,0.2-0.1c0.1,0,0.1-0.1,0.2-0.2c0-0.1,0.1-0.2,0.1-0.3
				c0-0.1,0-0.2-0.1-0.3c0-0.1-0.1-0.2-0.2-0.2c-0.1,0-0.2-0.1-0.2-0.1c-0.1,0-0.2,0-0.2,0.1c-0.1,0.1-0.1,0.1-0.2,0.2
				C69,44.7,69,44.8,69,44.9z"/>
			<path class="st0" d="M70.2,43.2c-0.1,0-0.1,0-0.2,0.1c0,0.1-0.1,0.1-0.1,0.2v0.7c-0.1-0.1-0.2-0.2-0.3-0.2
				c-0.1,0-0.2-0.1-0.4-0.1c-0.2,0-0.4,0.1-0.6,0.3c-0.1,0.2-0.2,0.4-0.2,0.7c0,0.1,0,0.3,0.1,0.4c0,0.1,0.1,0.2,0.2,0.3
				c0.1,0.1,0.2,0.2,0.3,0.2c0.1,0,0.2,0.1,0.3,0.1c0.1,0,0.2,0,0.2,0c0.1,0,0.1-0.1,0.2-0.1c0.1,0,0.1-0.1,0.2-0.2v0
				c0,0.1,0,0.2,0.1,0.2c0,0,0.1,0.1,0.2,0.1c0.1,0,0.1,0,0.2-0.1c0,0,0.1-0.1,0.1-0.2v-2.1c0-0.1,0-0.2-0.1-0.2
				C70.3,43.2,70.3,43.2,70.2,43.2L70.2,43.2z M69.5,45.5c-0.1,0-0.2,0-0.2-0.1c-0.1,0-0.1-0.1-0.2-0.2c0-0.1-0.1-0.2-0.1-0.3
				c0-0.1,0-0.2,0.1-0.3c0-0.1,0.1-0.2,0.2-0.2c0.1-0.1,0.1-0.1,0.2-0.1c0.1,0,0.2,0,0.2,0.1c0.1,0,0.1,0.1,0.2,0.2
				c0,0.1,0.1,0.2,0.1,0.3c0,0.1,0,0.3-0.1,0.3c0,0.1-0.1,0.2-0.2,0.2C69.6,45.5,69.6,45.5,69.5,45.5L69.5,45.5z"/>
		</g>
		<g>
			<path class="st10" d="M72.1,45.6c-0.1,0.1-0.2,0.2-0.3,0.2c-0.1,0-0.2,0.1-0.4,0.1c-0.1,0-0.2,0-0.3-0.1c-0.1,0-0.2-0.1-0.2-0.2
				c-0.1-0.1-0.1-0.2-0.1-0.3c0-0.1,0-0.2,0.1-0.3c0.1-0.1,0.2-0.2,0.3-0.2c0,0,0.1,0,0.2,0c0.1,0,0.2,0,0.3-0.1
				c0.1,0,0.2,0,0.3-0.1c0-0.1,0-0.2-0.1-0.3c0-0.1-0.1-0.1-0.3-0.1c-0.1,0-0.2,0-0.3,0.1c-0.1,0-0.1,0.1-0.2,0.2s-0.1,0.1-0.1,0.1
				c0,0-0.1,0-0.1,0c-0.1,0-0.1,0-0.1-0.1s-0.1-0.1-0.1-0.1c0-0.1,0-0.2,0.1-0.2c0.1-0.1,0.2-0.1,0.3-0.2c0.1-0.1,0.3-0.1,0.5-0.1
				c0.2,0,0.4,0,0.5,0.1c0.1,0.1,0.2,0.1,0.3,0.2c0.1,0.1,0.1,0.3,0.1,0.4c0,0.1,0,0.2,0,0.3c0,0.1,0,0.2,0,0.3c0,0.1,0,0.2,0,0.3
				c0,0.1,0,0.2,0,0.2c0,0,0,0.1-0.1,0.1c0,0-0.1,0.1-0.2,0.1c0,0-0.1,0-0.1-0.1C72.3,45.8,72.2,45.7,72.1,45.6z M72.1,44.9
				c-0.1,0-0.2,0.1-0.3,0.1c-0.1,0-0.2,0.1-0.3,0.1c-0.1,0-0.1,0-0.1,0.1c0,0-0.1,0.1-0.1,0.2c0,0.1,0,0.1,0.1,0.2
				c0.1,0.1,0.1,0.1,0.2,0.1c0.1,0,0.2,0,0.3-0.1c0.1,0,0.1-0.1,0.2-0.2C72.1,45.3,72.1,45.2,72.1,44.9L72.1,44.9z"/>
			<path class="st0" d="M71.8,43.9c-0.2,0-0.4,0-0.5,0.1c-0.1,0.1-0.2,0.1-0.3,0.2c-0.1,0.1-0.1,0.2-0.1,0.2c0,0.1,0,0.1,0.1,0.1
				c0,0,0.1,0.1,0.1,0.1c0.1,0,0.1,0,0.1,0c0,0,0-0.1,0.1-0.1c0-0.1,0.1-0.1,0.2-0.2c0.1,0,0.2-0.1,0.3-0.1c0.1,0,0.2,0,0.3,0.1
				c0,0.1,0.1,0.2,0.1,0.3c-0.1,0-0.2,0.1-0.3,0.1c-0.1,0-0.2,0-0.3,0.1c-0.1,0-0.2,0-0.2,0c-0.1,0-0.3,0.1-0.3,0.2
				c-0.1,0.1-0.1,0.2-0.1,0.3c0,0.1,0,0.2,0.1,0.3c0.1,0.1,0.1,0.2,0.2,0.2c0.1,0,0.2,0.1,0.3,0.1c0.1,0,0.3,0,0.4-0.1
				c0.1,0,0.2-0.1,0.3-0.2c0.1,0.1,0.1,0.2,0.2,0.2c0,0,0.1,0.1,0.1,0.1c0.1,0,0.1,0,0.2-0.1c0,0,0.1-0.1,0.1-0.1c0,0,0-0.1,0-0.2
				c0-0.1,0-0.2,0-0.3c0-0.1,0-0.2,0-0.3c0-0.1,0-0.2,0-0.3c0-0.2,0-0.3-0.1-0.4c-0.1-0.1-0.1-0.2-0.3-0.2
				C72.1,43.9,72,43.9,71.8,43.9L71.8,43.9z M71.6,45.6c-0.1,0-0.2,0-0.2-0.1c-0.1-0.1-0.1-0.1-0.1-0.2c0-0.1,0-0.1,0.1-0.2
				c0,0,0.1-0.1,0.1-0.1c0.1,0,0.1,0,0.3-0.1c0.1,0,0.2-0.1,0.3-0.1V45c0,0.2,0,0.3-0.1,0.4c0,0.1-0.1,0.1-0.2,0.2
				C71.8,45.6,71.7,45.6,71.6,45.6L71.6,45.6z"/>
		</g>
		<g>
			<path class="st10" d="M74.7,45.3c0,0.1,0,0.2-0.1,0.3c-0.1,0.1-0.2,0.2-0.3,0.2c-0.1,0-0.3,0.1-0.5,0.1c-0.2,0-0.3,0-0.4-0.1
				c-0.1-0.1-0.2-0.1-0.3-0.2C73,45.5,73,45.5,73,45.4c0-0.1,0-0.1,0.1-0.1c0,0,0.1-0.1,0.1-0.1c0.1,0,0.1,0,0.1,0
				c0,0,0.1,0.1,0.1,0.1c0,0.1,0.1,0.2,0.2,0.2c0.1,0,0.2,0.1,0.3,0.1c0.1,0,0.2,0,0.2-0.1c0.1,0,0.1-0.1,0.1-0.1
				c0-0.1,0-0.1-0.1-0.2c-0.1,0-0.2-0.1-0.3-0.1c-0.2,0-0.3-0.1-0.4-0.1c-0.1,0-0.2-0.1-0.3-0.2C73,44.7,73,44.6,73,44.5
				c0-0.1,0-0.2,0.1-0.3c0.1-0.1,0.1-0.2,0.3-0.2c0.1-0.1,0.2-0.1,0.4-0.1c0.1,0,0.2,0,0.3,0c0.1,0,0.2,0.1,0.3,0.1
				c0.1,0,0.1,0.1,0.2,0.1c0,0.1,0.1,0.1,0.1,0.2c0,0.1,0,0.1-0.1,0.1c0,0-0.1,0.1-0.2,0.1c0,0-0.1,0-0.1,0c0,0-0.1-0.1-0.1-0.1
				c0,0-0.1-0.1-0.1-0.1s-0.1,0-0.2,0c-0.1,0-0.2,0-0.2,0.1c-0.1,0-0.1,0.1-0.1,0.1c0,0.1,0,0.1,0.1,0.1c0,0,0.1,0.1,0.2,0.1
				c0.1,0,0.2,0,0.3,0.1c0.2,0,0.3,0.1,0.4,0.1c0.1,0.1,0.2,0.1,0.2,0.2C74.6,45.1,74.7,45.2,74.7,45.3z"/>
			<path class="st0" d="M73.8,43.9c-0.2,0-0.3,0-0.4,0.1c-0.1,0.1-0.2,0.1-0.3,0.2C73,44.3,73,44.4,73,44.5c0,0.1,0,0.2,0.1,0.3
				c0.1,0.1,0.1,0.1,0.3,0.2c0.1,0,0.2,0.1,0.4,0.1c0.1,0,0.3,0.1,0.3,0.1c0.1,0,0.1,0.1,0.1,0.2c0,0.1,0,0.1-0.1,0.1
				c-0.1,0-0.1,0.1-0.2,0.1c-0.1,0-0.2,0-0.3-0.1c-0.1,0-0.1-0.1-0.2-0.2c0,0-0.1-0.1-0.1-0.1c0,0-0.1,0-0.1,0c-0.1,0-0.1,0-0.1,0.1
				c0,0-0.1,0.1-0.1,0.1c0,0.1,0,0.2,0.1,0.2c0.1,0.1,0.2,0.1,0.3,0.2c0.1,0.1,0.3,0.1,0.4,0.1c0.2,0,0.3,0,0.5-0.1
				c0.1,0,0.2-0.1,0.3-0.2c0.1-0.1,0.1-0.2,0.1-0.3c0-0.1,0-0.2-0.1-0.2c0-0.1-0.1-0.1-0.2-0.2c-0.1-0.1-0.2-0.1-0.4-0.1
				c-0.1,0-0.2-0.1-0.3-0.1c-0.1,0-0.1,0-0.2-0.1c0,0-0.1-0.1-0.1-0.1c0-0.1,0-0.1,0.1-0.1c0.1,0,0.1-0.1,0.2-0.1c0.1,0,0.2,0,0.2,0
				s0.1,0.1,0.1,0.1c0,0.1,0.1,0.1,0.1,0.1c0,0,0.1,0,0.1,0c0.1,0,0.1,0,0.2-0.1c0,0,0.1-0.1,0.1-0.1c0-0.1,0-0.1-0.1-0.2
				c0-0.1-0.1-0.1-0.2-0.1c-0.1,0-0.2-0.1-0.3-0.1C74,43.9,73.9,43.9,73.8,43.9L73.8,43.9z"/>
		</g>
		<g>
			<path class="st10" d="M77.3,45h-1c0,0.1,0,0.2,0.1,0.3c0,0.1,0.1,0.1,0.2,0.2c0.1,0,0.2,0.1,0.2,0.1c0.1,0,0.1,0,0.2,0
				c0,0,0.1,0,0.1-0.1c0,0,0.1-0.1,0.1-0.1c0,0,0.1-0.1,0.1-0.1c0,0,0.1,0,0.1,0c0,0,0.1,0,0.1,0c0,0,0,0.1,0,0.1c0,0,0,0.1-0.1,0.2
				c0,0.1-0.1,0.1-0.2,0.2c-0.1,0.1-0.2,0.1-0.3,0.1c-0.1,0-0.2,0.1-0.4,0.1c-0.3,0-0.6-0.1-0.7-0.3c-0.2-0.2-0.3-0.4-0.3-0.7
				c0-0.1,0-0.3,0.1-0.4c0-0.1,0.1-0.2,0.2-0.3c0.1-0.1,0.2-0.2,0.3-0.2c0.1,0,0.3-0.1,0.4-0.1c0.2,0,0.4,0,0.5,0.1
				c0.1,0.1,0.2,0.2,0.3,0.3c0.1,0.1,0.1,0.3,0.1,0.4c0,0.1,0,0.2-0.1,0.2C77.6,45,77.5,45,77.3,45z M76.4,44.8h0.9
				c0-0.2-0.1-0.3-0.1-0.4c-0.1-0.1-0.2-0.1-0.3-0.1c-0.1,0-0.2,0-0.3,0.1C76.4,44.5,76.4,44.6,76.4,44.8z"/>
			<path class="st0" d="M76.8,43.9c-0.1,0-0.3,0-0.4,0.1c-0.1,0-0.2,0.1-0.3,0.2c-0.1,0.1-0.1,0.2-0.2,0.3c0,0.1-0.1,0.3-0.1,0.4
				c0,0.3,0.1,0.5,0.3,0.7c0.2,0.2,0.4,0.3,0.7,0.3c0.1,0,0.3,0,0.4-0.1c0.1,0,0.2-0.1,0.3-0.1c0.1-0.1,0.1-0.1,0.2-0.2
				c0-0.1,0.1-0.1,0.1-0.2c0,0,0-0.1,0-0.1c0,0-0.1,0-0.1,0c0,0-0.1,0-0.1,0c-0.1,0.1-0.1,0.1-0.1,0.1c0,0-0.1,0.1-0.1,0.1
				c0,0-0.1,0.1-0.1,0.1c0,0-0.1,0-0.2,0c-0.1,0-0.2,0-0.2-0.1c-0.1,0-0.1-0.1-0.2-0.2c0-0.1-0.1-0.2-0.1-0.3h1c0.1,0,0.2,0,0.3-0.1
				c0.1,0,0.1-0.1,0.1-0.2c0-0.1,0-0.3-0.1-0.4c-0.1-0.1-0.2-0.2-0.3-0.3C77.2,44,77,43.9,76.8,43.9L76.8,43.9z M76.4,44.8
				c0-0.2,0.1-0.3,0.1-0.4c0.1-0.1,0.2-0.1,0.3-0.1c0.1,0,0.2,0,0.3,0.1c0.1,0.1,0.1,0.2,0.1,0.4H76.4L76.4,44.8z"/>
		</g>
		<g>
			<path class="st10" d="M80.8,45.6l-0.1-0.3h-1.1l-0.1,0.3c0,0.1-0.1,0.2-0.1,0.3c0,0-0.1,0.1-0.2,0.1c-0.1,0-0.1,0-0.2-0.1
				c-0.1,0-0.1-0.1-0.1-0.2c0,0,0-0.1,0-0.1c0,0,0-0.1,0.1-0.2l0.7-1.7c0,0,0-0.1,0.1-0.2c0-0.1,0.1-0.1,0.1-0.2
				c0,0,0.1-0.1,0.1-0.1c0,0,0.1,0,0.2,0c0.1,0,0.1,0,0.2,0c0,0,0.1,0.1,0.1,0.1c0,0,0.1,0.1,0.1,0.1s0,0.1,0.1,0.2l0.7,1.7
				c0.1,0.1,0.1,0.2,0.1,0.3c0,0.1,0,0.1-0.1,0.2c-0.1,0.1-0.1,0.1-0.2,0.1c0,0-0.1,0-0.1,0c0,0-0.1,0-0.1-0.1c0,0,0-0.1-0.1-0.1
				C80.8,45.6,80.8,45.6,80.8,45.6z M79.7,44.8h0.8l-0.3-1.1h-0.1L79.7,44.8z"/>
			<path class="st0" d="M80.1,43.2c-0.1,0-0.1,0-0.2,0c0,0-0.1,0.1-0.1,0.1c0,0-0.1,0.1-0.1,0.2c0,0.1,0,0.1-0.1,0.2L79,45.4
				c0,0.1,0,0.1-0.1,0.2c0,0,0,0.1,0,0.1c0,0.1,0,0.1,0.1,0.2c0.1,0,0.1,0.1,0.2,0.1c0.1,0,0.1,0,0.2-0.1c0,0,0.1-0.1,0.1-0.3
				l0.1-0.3h1.1l0.1,0.3c0,0,0,0.1,0.1,0.1c0,0.1,0,0.1,0.1,0.1c0,0,0,0,0.1,0.1c0,0,0.1,0,0.1,0c0.1,0,0.1,0,0.2-0.1
				c0.1-0.1,0.1-0.1,0.1-0.2c0-0.1,0-0.2-0.1-0.3l-0.7-1.7c0-0.1-0.1-0.2-0.1-0.2c0-0.1,0-0.1-0.1-0.1c0,0-0.1-0.1-0.1-0.1
				C80.2,43.2,80.2,43.2,80.1,43.2L80.1,43.2z M79.7,44.8l0.4-1.1h0.1l0.3,1.1H79.7L79.7,44.8z"/>
		</g>
		<g>
			<path class="st10" d="M83.4,45.3c0,0.1,0,0.1-0.1,0.2c0,0.1-0.1,0.1-0.2,0.2c-0.1,0.1-0.2,0.1-0.3,0.2c-0.1,0-0.2,0.1-0.4,0.1
				c-0.3,0-0.5-0.1-0.7-0.3c-0.2-0.2-0.3-0.4-0.3-0.7c0-0.2,0-0.4,0.1-0.5c0.1-0.2,0.2-0.3,0.3-0.4c0.1-0.1,0.3-0.1,0.5-0.1
				c0.1,0,0.2,0,0.3,0.1c0.1,0,0.2,0.1,0.3,0.1c0.1,0.1,0.1,0.1,0.2,0.2c0,0.1,0.1,0.1,0.1,0.2c0,0.1,0,0.1-0.1,0.1
				c0,0-0.1,0.1-0.2,0.1c0,0-0.1,0-0.1,0c0,0-0.1-0.1-0.1-0.1c-0.1-0.1-0.1-0.2-0.2-0.2c-0.1,0-0.1-0.1-0.2-0.1
				c-0.1,0-0.3,0.1-0.3,0.2c-0.1,0.1-0.1,0.3-0.1,0.5c0,0.1,0,0.2,0,0.3c0,0.1,0.1,0.1,0.1,0.2c0,0.1,0.1,0.1,0.2,0.1
				c0.1,0,0.1,0,0.2,0c0.1,0,0.2,0,0.3-0.1c0.1,0,0.1-0.1,0.2-0.2c0-0.1,0.1-0.1,0.1-0.1c0,0,0.1,0,0.1,0c0.1,0,0.1,0,0.1,0.1
				C83.4,45.2,83.4,45.2,83.4,45.3z"/>
			<path class="st0" d="M84.7,46.2L84.7,46.2L84.7,46.2 M82.6,43.9c-0.2,0-0.4,0-0.5,0.1c-0.1,0.1-0.3,0.2-0.3,0.4
				c-0.1,0.2-0.1,0.3-0.1,0.5c0,0.3,0.1,0.5,0.3,0.7c0.2,0.2,0.4,0.3,0.7,0.3c0.1,0,0.3,0,0.4-0.1c0.1,0,0.2-0.1,0.3-0.2
				c0.1-0.1,0.1-0.1,0.2-0.2c0-0.1,0.1-0.1,0.1-0.2c0-0.1,0-0.1-0.1-0.1c0,0-0.1-0.1-0.1-0.1c0,0-0.1,0-0.1,0c0,0-0.1,0.1-0.1,0.1
				c-0.1,0.1-0.1,0.2-0.2,0.2c-0.1,0-0.2,0.1-0.3,0.1c-0.1,0-0.1,0-0.2,0c-0.1,0-0.1-0.1-0.2-0.1c0-0.1-0.1-0.1-0.1-0.2
				c0-0.1,0-0.2,0-0.3c0-0.2,0-0.3,0.1-0.5c0.1-0.1,0.2-0.2,0.3-0.2c0.1,0,0.2,0,0.2,0.1c0.1,0,0.1,0.1,0.2,0.2c0,0,0.1,0.1,0.1,0.1
				c0,0,0.1,0,0.1,0c0.1,0,0.1,0,0.2-0.1c0,0,0.1-0.1,0.1-0.1c0-0.1,0-0.1-0.1-0.2c0-0.1-0.1-0.1-0.2-0.2C83.1,44.1,83,44,82.9,44
				C82.8,43.9,82.7,43.9,82.6,43.9L82.6,43.9z"/>
		</g>
		<g>
			<path class="st10" d="M85.2,45h-1c0,0.1,0,0.2,0.1,0.3c0,0.1,0.1,0.1,0.2,0.2c0.1,0,0.2,0.1,0.2,0.1c0.1,0,0.1,0,0.2,0
				c0,0,0.1,0,0.1-0.1c0,0,0.1-0.1,0.1-0.1c0,0,0.1-0.1,0.1-0.1c0,0,0.1,0,0.1,0c0,0,0.1,0,0.1,0c0,0,0,0.1,0,0.1c0,0,0,0.1-0.1,0.2
				c0,0.1-0.1,0.1-0.2,0.2c-0.1,0.1-0.2,0.1-0.3,0.1c-0.1,0-0.2,0.1-0.4,0.1c-0.3,0-0.6-0.1-0.7-0.3c-0.2-0.2-0.3-0.4-0.3-0.7
				c0-0.1,0-0.3,0.1-0.4s0.1-0.2,0.2-0.3c0.1-0.1,0.2-0.2,0.3-0.2s0.3-0.1,0.4-0.1c0.2,0,0.4,0,0.5,0.1s0.2,0.2,0.3,0.3
				c0.1,0.1,0.1,0.3,0.1,0.4c0,0.1,0,0.2-0.1,0.2C85.4,45,85.3,45,85.2,45z M84.2,44.8h0.9c0-0.2-0.1-0.3-0.1-0.4
				c-0.1-0.1-0.2-0.1-0.3-0.1c-0.1,0-0.2,0-0.3,0.1C84.3,44.5,84.3,44.6,84.2,44.8z"/>
			<path class="st0" d="M84.7,43.9c-0.1,0-0.3,0-0.4,0.1c-0.1,0-0.2,0.1-0.3,0.2c-0.1,0.1-0.1,0.2-0.2,0.3c0,0.1-0.1,0.3-0.1,0.4
				c0,0.3,0.1,0.5,0.3,0.7c0.2,0.2,0.4,0.3,0.7,0.3c0.1,0,0.3,0,0.4-0.1c0.1,0,0.2-0.1,0.3-0.1c0.1-0.1,0.1-0.1,0.2-0.2
				c0-0.1,0.1-0.1,0.1-0.2c0,0,0-0.1,0-0.1c0,0-0.1,0-0.1,0c0,0-0.1,0-0.1,0c-0.1,0.1-0.1,0.1-0.1,0.1c0,0-0.1,0.1-0.1,0.1
				c0,0-0.1,0.1-0.1,0.1c0,0-0.1,0-0.2,0c-0.1,0-0.2,0-0.2-0.1c-0.1,0-0.1-0.1-0.2-0.2c0-0.1-0.1-0.2-0.1-0.3h1c0.1,0,0.2,0,0.3-0.1
				c0.1,0,0.1-0.1,0.1-0.2c0-0.1,0-0.3-0.1-0.4c-0.1-0.1-0.2-0.2-0.3-0.3C85.1,44,84.9,43.9,84.7,43.9L84.7,43.9z M84.2,44.8
				c0-0.2,0.1-0.3,0.1-0.4c0.1-0.1,0.2-0.1,0.3-0.1c0.1,0,0.2,0,0.3,0.1c0.1,0.1,0.1,0.2,0.1,0.4H84.2L84.2,44.8z"/>
		</g>
		<g>
			<path class="st10" d="M87.6,45.3c0,0.1,0,0.2-0.1,0.3c-0.1,0.1-0.2,0.2-0.3,0.2c-0.1,0-0.3,0.1-0.5,0.1c-0.2,0-0.3,0-0.4-0.1
				c-0.1-0.1-0.2-0.1-0.3-0.2c-0.1-0.1-0.1-0.2-0.1-0.2c0-0.1,0-0.1,0.1-0.1c0,0,0.1-0.1,0.1-0.1c0.1,0,0.1,0,0.1,0
				c0,0,0.1,0.1,0.1,0.1c0,0.1,0.1,0.2,0.2,0.2c0.1,0,0.2,0.1,0.3,0.1c0.1,0,0.2,0,0.2-0.1c0.1,0,0.1-0.1,0.1-0.1
				c0-0.1,0-0.1-0.1-0.2s-0.2-0.1-0.3-0.1c-0.2,0-0.3-0.1-0.4-0.1c-0.1,0-0.2-0.1-0.3-0.2c-0.1-0.1-0.1-0.2-0.1-0.3
				c0-0.1,0-0.2,0.1-0.3c0.1-0.1,0.1-0.2,0.3-0.2c0.1-0.1,0.2-0.1,0.4-0.1c0.1,0,0.2,0,0.3,0c0.1,0,0.2,0.1,0.3,0.1
				c0.1,0,0.1,0.1,0.2,0.1c0,0.1,0.1,0.1,0.1,0.2c0,0.1,0,0.1-0.1,0.1c0,0-0.1,0.1-0.2,0.1c0,0-0.1,0-0.1,0c0,0-0.1-0.1-0.1-0.1
				c0,0-0.1-0.1-0.1-0.1c0,0-0.1,0-0.2,0c-0.1,0-0.2,0-0.2,0.1c-0.1,0-0.1,0.1-0.1,0.1c0,0.1,0,0.1,0.1,0.1c0,0,0.1,0.1,0.2,0.1
				c0.1,0,0.2,0,0.3,0.1c0.2,0,0.3,0.1,0.4,0.1c0.1,0.1,0.2,0.1,0.2,0.2C87.5,45.1,87.6,45.2,87.6,45.3z"/>
			<path class="st0" d="M86.7,43.9c-0.2,0-0.3,0-0.4,0.1c-0.1,0.1-0.2,0.1-0.3,0.2c-0.1,0.1-0.1,0.2-0.1,0.3c0,0.1,0,0.2,0.1,0.3
				c0.1,0.1,0.1,0.1,0.3,0.2c0.1,0,0.2,0.1,0.4,0.1c0.1,0,0.3,0.1,0.3,0.1c0.1,0,0.1,0.1,0.1,0.2c0,0.1,0,0.1-0.1,0.1
				s-0.1,0.1-0.2,0.1c-0.1,0-0.2,0-0.3-0.1c-0.1,0-0.1-0.1-0.2-0.2c0,0-0.1-0.1-0.1-0.1c0,0-0.1,0-0.1,0c-0.1,0-0.1,0-0.1,0.1
				c0,0-0.1,0.1-0.1,0.1c0,0.1,0,0.2,0.1,0.2c0.1,0.1,0.2,0.1,0.3,0.2c0.1,0.1,0.3,0.1,0.4,0.1c0.2,0,0.3,0,0.5-0.1
				c0.1,0,0.2-0.1,0.3-0.2c0.1-0.1,0.1-0.2,0.1-0.3c0-0.1,0-0.2-0.1-0.2c0-0.1-0.1-0.1-0.2-0.2c-0.1-0.1-0.2-0.1-0.4-0.1
				c-0.1,0-0.2-0.1-0.3-0.1c-0.1,0-0.1,0-0.2-0.1c0,0-0.1-0.1-0.1-0.1c0-0.1,0-0.1,0.1-0.1c0.1,0,0.1-0.1,0.2-0.1c0.1,0,0.2,0,0.2,0
				c0,0,0.1,0.1,0.1,0.1c0,0.1,0.1,0.1,0.1,0.1c0,0,0.1,0,0.1,0c0.1,0,0.1,0,0.2-0.1c0,0,0.1-0.1,0.1-0.1c0-0.1,0-0.1-0.1-0.2
				c0-0.1-0.1-0.1-0.2-0.1C87.2,44,87.1,44,87,44C86.9,43.9,86.8,43.9,86.7,43.9L86.7,43.9z"/>
		</g>
		<g>
			<path class="st10" d="M89.5,45.3c0,0.1,0,0.2-0.1,0.3c-0.1,0.1-0.2,0.2-0.3,0.2c-0.1,0-0.3,0.1-0.5,0.1c-0.2,0-0.3,0-0.4-0.1
				c-0.1-0.1-0.2-0.1-0.3-0.2c-0.1-0.1-0.1-0.2-0.1-0.2c0-0.1,0-0.1,0.1-0.1c0,0,0.1-0.1,0.1-0.1c0.1,0,0.1,0,0.1,0
				c0,0,0.1,0.1,0.1,0.1c0,0.1,0.1,0.2,0.2,0.2c0.1,0,0.2,0.1,0.3,0.1c0.1,0,0.2,0,0.2-0.1c0.1,0,0.1-0.1,0.1-0.1
				c0-0.1,0-0.1-0.1-0.2s-0.2-0.1-0.3-0.1c-0.2,0-0.3-0.1-0.4-0.1c-0.1,0-0.2-0.1-0.3-0.2c-0.1-0.1-0.1-0.2-0.1-0.3
				c0-0.1,0-0.2,0.1-0.3c0.1-0.1,0.1-0.2,0.3-0.2c0.1-0.1,0.2-0.1,0.4-0.1c0.1,0,0.2,0,0.3,0c0.1,0,0.2,0.1,0.3,0.1
				c0.1,0,0.1,0.1,0.2,0.1c0,0.1,0.1,0.1,0.1,0.2c0,0.1,0,0.1-0.1,0.1c0,0-0.1,0.1-0.2,0.1c0,0-0.1,0-0.1,0c0,0-0.1-0.1-0.1-0.1
				c0,0-0.1-0.1-0.1-0.1c0,0-0.1,0-0.2,0c-0.1,0-0.2,0-0.2,0.1c-0.1,0-0.1,0.1-0.1,0.1c0,0.1,0,0.1,0.1,0.1c0,0,0.1,0.1,0.2,0.1
				c0.1,0,0.2,0,0.3,0.1c0.2,0,0.3,0.1,0.4,0.1c0.1,0.1,0.2,0.1,0.2,0.2C89.5,45.1,89.5,45.2,89.5,45.3z"/>
			<path class="st0" d="M88.7,43.9c-0.2,0-0.3,0-0.4,0.1c-0.1,0.1-0.2,0.1-0.3,0.2c-0.1,0.1-0.1,0.2-0.1,0.3c0,0.1,0,0.2,0.1,0.3
				c0.1,0.1,0.1,0.1,0.3,0.2c0.1,0,0.2,0.1,0.4,0.1c0.1,0,0.3,0.1,0.3,0.1c0.1,0,0.1,0.1,0.1,0.2c0,0.1,0,0.1-0.1,0.1
				c-0.1,0-0.1,0.1-0.2,0.1c-0.1,0-0.2,0-0.3-0.1c-0.1,0-0.1-0.1-0.2-0.2c0,0-0.1-0.1-0.1-0.1c0,0-0.1,0-0.1,0c-0.1,0-0.1,0-0.1,0.1
				c0,0-0.1,0.1-0.1,0.1c0,0.1,0,0.2,0.1,0.2c0.1,0.1,0.2,0.1,0.3,0.2c0.1,0.1,0.3,0.1,0.4,0.1c0.2,0,0.3,0,0.5-0.1
				c0.1,0,0.2-0.1,0.3-0.2c0.1-0.1,0.1-0.2,0.1-0.3c0-0.1,0-0.2-0.1-0.2c0-0.1-0.1-0.1-0.2-0.2c-0.1-0.1-0.2-0.1-0.4-0.1
				c-0.1,0-0.2-0.1-0.3-0.1c-0.1,0-0.1,0-0.2-0.1c0,0-0.1-0.1-0.1-0.1c0-0.1,0-0.1,0.1-0.1c0.1,0,0.1-0.1,0.2-0.1c0.1,0,0.2,0,0.2,0
				c0,0,0.1,0.1,0.1,0.1c0,0.1,0.1,0.1,0.1,0.1c0,0,0.1,0,0.1,0c0.1,0,0.1,0,0.2-0.1c0,0,0.1-0.1,0.1-0.1c0-0.1,0-0.1-0.1-0.2
				c0-0.1-0.1-0.1-0.2-0.1C89.2,44,89.1,44,89,44C88.9,43.9,88.8,43.9,88.7,43.9L88.7,43.9z"/>
		</g>
		<g>
			<path class="st10" d="M91.8,44.9c0,0.1,0,0.3-0.1,0.4c0,0.1-0.1,0.2-0.2,0.3c-0.1,0.1-0.2,0.2-0.3,0.2c-0.1,0-0.3,0.1-0.4,0.1
				c-0.1,0-0.3,0-0.4-0.1c-0.1,0-0.2-0.1-0.3-0.2c-0.1-0.1-0.2-0.2-0.2-0.3c0-0.1-0.1-0.3-0.1-0.4c0-0.1,0-0.3,0.1-0.4
				c0-0.1,0.1-0.2,0.2-0.3c0.1-0.1,0.2-0.2,0.3-0.2c0.1,0,0.3-0.1,0.4-0.1c0.1,0,0.3,0,0.4,0.1c0.1,0,0.2,0.1,0.3,0.2
				c0.1,0.1,0.2,0.2,0.2,0.3C91.8,44.6,91.8,44.8,91.8,44.9z M91.3,44.9c0-0.2,0-0.4-0.1-0.5c-0.1-0.1-0.2-0.2-0.4-0.2
				c-0.1,0-0.2,0-0.3,0.1c-0.1,0-0.1,0.1-0.2,0.2c0,0.1-0.1,0.2-0.1,0.3c0,0.1,0,0.2,0.1,0.3c0,0.1,0.1,0.2,0.2,0.2
				c0.1,0.1,0.2,0.1,0.3,0.1c0.1,0,0.3-0.1,0.4-0.2C91.2,45.3,91.3,45.1,91.3,44.9z M90.9,43.2h0.2c0.1,0,0.1,0,0.1,0
				c0,0,0,0-0.1,0.1c-0.1,0.1-0.1,0.1-0.2,0.2c-0.1,0.1-0.1,0.1-0.1,0.1c-0.1,0-0.1,0.1-0.2,0.1c-0.1,0-0.1,0-0.1,0c0,0,0-0.1,0-0.1
				l0.1-0.1c0-0.1,0.1-0.1,0.1-0.2C90.7,43.2,90.8,43.2,90.9,43.2z"/>
			<path class="st0" d="M91.1,43.2h-0.2c-0.1,0-0.1,0-0.2,0c0,0-0.1,0.1-0.1,0.2l-0.1,0.1c0,0,0,0.1,0,0.1c0,0,0,0,0.1,0
				c0.1,0,0.1,0,0.2-0.1c0,0,0.1-0.1,0.1-0.1c0.1-0.1,0.1-0.1,0.2-0.2C91.2,43.3,91.2,43.3,91.1,43.2C91.2,43.2,91.2,43.2,91.1,43.2
				L91.1,43.2z M90.8,43.9c-0.1,0-0.3,0-0.4,0.1c-0.1,0-0.2,0.1-0.3,0.2c-0.1,0.1-0.1,0.2-0.2,0.3c0,0.1-0.1,0.3-0.1,0.4
				c0,0.1,0,0.3,0.1,0.4c0,0.1,0.1,0.2,0.2,0.3c0.1,0.1,0.2,0.2,0.3,0.2c0.1,0,0.2,0.1,0.4,0.1c0.1,0,0.3,0,0.4-0.1
				c0.1,0,0.2-0.1,0.3-0.2c0.1-0.1,0.2-0.2,0.2-0.3c0-0.1,0.1-0.3,0.1-0.4c0-0.1,0-0.3-0.1-0.4c0-0.1-0.1-0.2-0.2-0.3
				c-0.1-0.1-0.2-0.2-0.3-0.2C91.1,43.9,91,43.9,90.8,43.9L90.8,43.9z M90.8,45.5c-0.1,0-0.2,0-0.3-0.1c-0.1-0.1-0.1-0.1-0.2-0.2
				c0-0.1-0.1-0.2-0.1-0.3c0-0.1,0-0.2,0.1-0.3c0-0.1,0.1-0.2,0.2-0.2c0.1,0,0.2-0.1,0.3-0.1c0.1,0,0.3,0.1,0.4,0.2
				c0.1,0.1,0.1,0.3,0.1,0.5c0,0.2,0,0.3-0.1,0.5C91.1,45.5,91,45.5,90.8,45.5L90.8,45.5z"/>
		</g>
		<g>
			<path class="st10" d="M92.6,45.2v0.4c0,0.1,0,0.2-0.1,0.2c0,0-0.1,0.1-0.2,0.1c-0.1,0-0.1,0-0.2-0.1c0,0-0.1-0.1-0.1-0.2v-1.4
				c0-0.2,0.1-0.3,0.2-0.3c0.1,0,0.1,0,0.2,0.1s0.1,0.1,0.1,0.2c0.1-0.1,0.1-0.2,0.2-0.2s0.1-0.1,0.2-0.1c0.1,0,0.2,0,0.3,0.1
				c0.1,0.1,0.1,0.1,0.1,0.2c0,0.1,0,0.1-0.1,0.1c0,0-0.1,0.1-0.1,0.1c0,0-0.1,0-0.1,0s-0.1,0-0.2,0c-0.1,0-0.1,0-0.2,0.1
				c0,0-0.1,0.1-0.1,0.2c0,0.1,0,0.2-0.1,0.3C92.7,44.9,92.6,45,92.6,45.2z"/>
			<path class="st0" d="M94.4,45.2L94.4,45.2L94.4,45.2 M93.1,43.9c-0.1,0-0.2,0-0.2,0.1c-0.1,0.1-0.1,0.1-0.2,0.2
				c0-0.1,0-0.2-0.1-0.2c0-0.1-0.1-0.1-0.2-0.1c-0.2,0-0.2,0.1-0.2,0.3v1.4c0,0.1,0,0.2,0.1,0.2c0,0,0.1,0.1,0.2,0.1
				c0.1,0,0.1,0,0.2-0.1c0,0,0.1-0.1,0.1-0.2v-0.4c0-0.1,0-0.3,0-0.4c0-0.1,0-0.2,0.1-0.3c0-0.1,0.1-0.1,0.1-0.2
				c0,0,0.1-0.1,0.2-0.1c0.1,0,0.1,0,0.2,0c0.1,0,0.1,0,0.1,0c0,0,0.1,0,0.1-0.1c0,0,0.1-0.1,0.1-0.1c0-0.1,0-0.2-0.1-0.2
				C93.3,43.9,93.2,43.9,93.1,43.9L93.1,43.9z"/>
		</g>
		<g>
			<path class="st10" d="M94,43.7c-0.1,0-0.1,0-0.2-0.1c0,0-0.1-0.1-0.1-0.2c0-0.1,0-0.1,0.1-0.2c0,0,0.1-0.1,0.2-0.1
				c0.1,0,0.1,0,0.2,0.1c0,0,0.1,0.1,0.1,0.2c0,0.1,0,0.1-0.1,0.2C94.1,43.7,94.1,43.7,94,43.7z M94.2,44.2v1.4c0,0.1,0,0.2-0.1,0.2
				c0,0-0.1,0.1-0.2,0.1c-0.1,0-0.1,0-0.2-0.1c0-0.1-0.1-0.1-0.1-0.2v-1.4c0-0.1,0-0.2,0.1-0.2c0,0,0.1-0.1,0.2-0.1
				c0.1,0,0.1,0,0.2,0.1C94.2,44,94.2,44.1,94.2,44.2z"/>
			<path class="st0" d="M94,43.2c-0.1,0-0.1,0-0.2,0.1c0,0-0.1,0.1-0.1,0.2c0,0.1,0,0.1,0.1,0.2c0,0,0.1,0.1,0.2,0.1
				c0.1,0,0.1,0,0.2-0.1c0,0,0.1-0.1,0.1-0.2c0-0.1,0-0.1-0.1-0.2C94.1,43.2,94.1,43.2,94,43.2L94,43.2z M94,43.9
				c-0.1,0-0.1,0-0.2,0.1c0,0-0.1,0.1-0.1,0.2v1.4c0,0.1,0,0.2,0.1,0.2c0,0.1,0.1,0.1,0.2,0.1c0.1,0,0.1,0,0.2-0.1
				c0,0,0.1-0.1,0.1-0.2v-1.4c0-0.1,0-0.2-0.1-0.2C94.1,43.9,94.1,43.9,94,43.9L94,43.9z"/>
		</g>
		<g>
			<path class="st10" d="M96.6,44.9c0,0.1,0,0.3-0.1,0.4c0,0.1-0.1,0.2-0.2,0.3c-0.1,0.1-0.2,0.2-0.3,0.2c-0.1,0-0.3,0.1-0.4,0.1
				c-0.1,0-0.3,0-0.4-0.1c-0.1,0-0.2-0.1-0.3-0.2c-0.1-0.1-0.2-0.2-0.2-0.3c0-0.1-0.1-0.3-0.1-0.4c0-0.1,0-0.3,0.1-0.4
				c0-0.1,0.1-0.2,0.2-0.3c0.1-0.1,0.2-0.2,0.3-0.2s0.3-0.1,0.4-0.1c0.1,0,0.3,0,0.4,0.1c0.1,0,0.2,0.1,0.3,0.2
				c0.1,0.1,0.2,0.2,0.2,0.3C96.5,44.6,96.6,44.8,96.6,44.9z M96.1,44.9c0-0.2,0-0.4-0.1-0.5c-0.1-0.1-0.2-0.2-0.4-0.2
				c-0.1,0-0.2,0-0.3,0.1c-0.1,0-0.1,0.1-0.2,0.2c0,0.1-0.1,0.2-0.1,0.3c0,0.1,0,0.2,0.1,0.3c0,0.1,0.1,0.2,0.2,0.2
				c0.1,0.1,0.2,0.1,0.3,0.1c0.1,0,0.3-0.1,0.4-0.2C96,45.3,96.1,45.1,96.1,44.9z"/>
			<path class="st0" d="M95.6,43.9c-0.1,0-0.3,0-0.4,0.1c-0.1,0-0.2,0.1-0.3,0.2c-0.1,0.1-0.1,0.2-0.2,0.3c0,0.1-0.1,0.3-0.1,0.4
				c0,0.1,0,0.3,0.1,0.4c0,0.1,0.1,0.2,0.2,0.3c0.1,0.1,0.2,0.2,0.3,0.2c0.1,0,0.2,0.1,0.4,0.1c0.1,0,0.3,0,0.4-0.1
				c0.1,0,0.2-0.1,0.3-0.2c0.1-0.1,0.2-0.2,0.2-0.3c0-0.1,0.1-0.3,0.1-0.4c0-0.1,0-0.3-0.1-0.4c0-0.1-0.1-0.2-0.2-0.3
				C96.2,44.1,96.1,44,96,44C95.9,43.9,95.7,43.9,95.6,43.9L95.6,43.9z M95.6,45.5c-0.1,0-0.2,0-0.3-0.1c-0.1-0.1-0.1-0.1-0.2-0.2
				c0-0.1-0.1-0.2-0.1-0.3c0-0.1,0-0.2,0.1-0.3c0-0.1,0.1-0.2,0.2-0.2c0.1,0,0.2-0.1,0.3-0.1c0.1,0,0.3,0.1,0.4,0.2
				c0.1,0.1,0.1,0.3,0.1,0.5c0,0.2,0,0.3-0.1,0.5C95.9,45.5,95.7,45.5,95.6,45.5L95.6,45.5z"/>
		</g>
		<g>
			<path class="st10" d="M98.5,45.3c0,0.1,0,0.2-0.1,0.3c-0.1,0.1-0.2,0.2-0.3,0.2c-0.1,0-0.3,0.1-0.5,0.1c-0.2,0-0.3,0-0.4-0.1
				c-0.1-0.1-0.2-0.1-0.3-0.2c-0.1-0.1-0.1-0.2-0.1-0.2c0-0.1,0-0.1,0.1-0.1c0,0,0.1-0.1,0.1-0.1c0.1,0,0.1,0,0.1,0
				c0,0,0.1,0.1,0.1,0.1c0,0.1,0.1,0.2,0.2,0.2c0.1,0,0.2,0.1,0.3,0.1c0.1,0,0.2,0,0.2-0.1c0.1,0,0.1-0.1,0.1-0.1
				c0-0.1,0-0.1-0.1-0.2s-0.2-0.1-0.3-0.1c-0.2,0-0.3-0.1-0.4-0.1c-0.1,0-0.2-0.1-0.3-0.2c-0.1-0.1-0.1-0.2-0.1-0.3
				c0-0.1,0-0.2,0.1-0.3c0.1-0.1,0.1-0.2,0.3-0.2c0.1-0.1,0.2-0.1,0.4-0.1c0.1,0,0.2,0,0.3,0c0.1,0,0.2,0.1,0.3,0.1
				c0.1,0,0.1,0.1,0.2,0.1c0,0.1,0.1,0.1,0.1,0.2c0,0.1,0,0.1-0.1,0.1c0,0-0.1,0.1-0.2,0.1c0,0-0.1,0-0.1,0c0,0-0.1-0.1-0.1-0.1
				c0,0-0.1-0.1-0.1-0.1s-0.1,0-0.2,0c-0.1,0-0.2,0-0.2,0.1c-0.1,0-0.1,0.1-0.1,0.1c0,0.1,0,0.1,0.1,0.1c0,0,0.1,0.1,0.2,0.1
				c0.1,0,0.2,0,0.3,0.1c0.2,0,0.3,0.1,0.4,0.1c0.1,0.1,0.2,0.1,0.2,0.2C98.5,45.1,98.5,45.2,98.5,45.3z"/>
			<path class="st0" d="M97.6,43.9c-0.2,0-0.3,0-0.4,0.1C97.1,44,97,44.1,97,44.2c-0.1,0.1-0.1,0.2-0.1,0.3c0,0.1,0,0.2,0.1,0.3
				c0.1,0.1,0.1,0.1,0.3,0.2c0.1,0,0.2,0.1,0.4,0.1c0.1,0,0.3,0.1,0.3,0.1c0.1,0,0.1,0.1,0.1,0.2c0,0.1,0,0.1-0.1,0.1
				c-0.1,0-0.1,0.1-0.2,0.1c-0.1,0-0.2,0-0.3-0.1c-0.1,0-0.1-0.1-0.2-0.2c0,0-0.1-0.1-0.1-0.1c0,0-0.1,0-0.1,0c-0.1,0-0.1,0-0.1,0.1
				c0,0-0.1,0.1-0.1,0.1c0,0.1,0,0.2,0.1,0.2c0.1,0.1,0.2,0.1,0.3,0.2c0.1,0.1,0.3,0.1,0.4,0.1c0.2,0,0.3,0,0.5-0.1
				c0.1,0,0.2-0.1,0.3-0.2c0.1-0.1,0.1-0.2,0.1-0.3c0-0.1,0-0.2-0.1-0.2c0-0.1-0.1-0.1-0.2-0.2c-0.1-0.1-0.2-0.1-0.4-0.1
				c-0.1,0-0.2-0.1-0.3-0.1c-0.1,0-0.1,0-0.2-0.1c0,0-0.1-0.1-0.1-0.1c0-0.1,0-0.1,0.1-0.1c0.1,0,0.1-0.1,0.2-0.1c0.1,0,0.2,0,0.2,0
				s0.1,0.1,0.1,0.1c0,0.1,0.1,0.1,0.1,0.1c0,0,0.1,0,0.1,0c0.1,0,0.1,0,0.2-0.1c0,0,0.1-0.1,0.1-0.1c0-0.1,0-0.1-0.1-0.2
				c0-0.1-0.1-0.1-0.2-0.1C98.1,44,98.1,44,98,44C97.9,43.9,97.8,43.9,97.6,43.9L97.6,43.9z"/>
		</g>
	</g>
</g>
</svg>
